<?xml version="1.0" encoding="UTF-8"?>
<svg width="960px" height="42px" viewBox="0 0 960 42" version="1.1" xmlns="http://www.w3.org/2000/svg" xmlns:xlink="http://www.w3.org/1999/xlink">
    <!-- Generator: Sketch 55.1 (78136) - https://sketchapp.com -->
    <title>repo</title>
    <desc>Created with Sketch.</desc>
    <g id="Page-1" stroke="none" stroke-width="1" fill="none" fill-rule="evenodd">
        <g id="Home" transform="translate(0.000000, -4555.000000)">
            <g id="technical" transform="translate(0.000000, 4556.000000)">
                <g id="repo">
                    <rect id="Rectangle" fill="#F2F2F2" x="0" y="19" width="960" height="2"></rect>
                    <path d="M112,20 C112,20 117.333333,20 128,20 C144,20 144,4 160,4 C176,4 304,4 320,4 C336,4 336,20 352,20 C362.666667,20 368,20 368,20" id="Path-19" stroke="#99DFAA" stroke-width="2"></path>
                    <path d="M560,36 C560,36 565.333333,36 576,36 C592,36 592,20 608,20 C624,20 816,20 832,20 C848,20 848,36 864,36 C874.666667,36 880,36 880,36" id="Path-19-Copy" stroke="#99DFAA" stroke-width="2" transform="translate(720.000000, 28.000000) scale(1, -1) translate(-720.000000, -28.000000) "></path>
                    <circle id="Oval" stroke="#D5D5D5" stroke-width="2" fill="#FFFFFF" cx="48" cy="20" r="4"></circle>
                    <circle id="Oval-Copy-2" stroke="#1BB943" stroke-width="2" fill="#FFFFFF" cx="112" cy="20" r="4"></circle>
                    <circle id="Oval-Copy-17" stroke="#1BB943" stroke-width="2" fill="#FFFFFF" cx="560" cy="20" r="4"></circle>
                    <circle id="Oval-Copy-3" stroke="#D5D5D5" stroke-width="2" fill="#FFFFFF" cx="176" cy="20" r="4"></circle>
                    <circle id="Oval-Copy-15" stroke="#D5D5D5" stroke-width="2" fill="#FFFFFF" cx="432" cy="20" r="4"></circle>
                    <circle id="Oval-Copy-16" stroke="#D5D5D5" stroke-width="2" fill="#FFFFFF" cx="496" cy="20" r="4"></circle>
                    <circle id="Oval-Copy-18" stroke="#D5D5D5" stroke-width="2" fill="#FFFFFF" cx="688" cy="20" r="4"></circle>
                    <circle id="Oval-Copy-19" stroke="#D5D5D5" stroke-width="2" fill="#FFFFFF" cx="816" cy="20" r="4"></circle>
                    <circle id="Oval-Copy-21" stroke="#D5D5D5" stroke-width="2" fill="#FFFFFF" cx="944" cy="20" r="4"></circle>
                    <circle id="Oval-Copy-11" stroke="#1BB943" stroke-width="2" fill="#FFFFFF" cx="368" cy="20" r="4"></circle>
                    <circle id="Oval-Copy-7" stroke="#1BB943" stroke-width="2" fill="#FFFFFF" cx="240" cy="4" r="4"></circle>
                    <circle id="Oval-Copy-20" stroke="#1BB943" stroke-width="2" fill="#FFFFFF" cx="624" cy="36" r="4"></circle>
                    <circle id="Oval-Copy-22" stroke="#1BB943" stroke-width="2" fill="#FFFFFF" cx="752" cy="36" r="4"></circle>
                    <circle id="Oval-Copy-23" stroke="#1BB943" stroke-width="2" fill="#FFFFFF" cx="880" cy="20" r="4"></circle>
                    <circle id="Oval-Copy-9" stroke="#1BB943" stroke-width="2" fill="#FFFFFF" cx="304" cy="4" r="4"></circle>
                </g>
            </g>
        </g>
    </g>
</svg>