<?xml version="1.0" encoding="UTF-8"?>
<svg width="32px" height="32px" viewBox="0 0 32 32" version="1.1" xmlns="http://www.w3.org/2000/svg" xmlns:xlink="http://www.w3.org/1999/xlink">
    <!-- Generator: Sketch 55.1 (78136) - https://sketchapp.com -->
    <title>close-icon</title>
    <desc>Created with Sketch.</desc>
    <g id="Page-1" stroke="none" stroke-width="1" fill="none" fill-rule="evenodd">
        <g id="Menu" transform="translate(-1360.000000, -16.000000)" fill="#006AEF">
            <g id="close-icon" transform="translate(1360.000000, 16.000000)">
                <path d="M17.4276655,16 L31.7043208,30.2766553 C32.0985597,30.6708942 32.0985597,31.3100818 31.7043208,31.7043208 C31.3100818,32.0985597 30.6708942,32.0985597 30.2766553,31.7043208 L16,17.4276655 L1.72334474,31.7043208 C1.32910579,32.0985597 0.689918161,32.0985597 0.295679212,31.7043208 C-0.0985597372,31.3100818 -0.0985597372,30.6708942 0.295679212,30.2766553 L14.5723345,16 L0.295679212,1.72334474 C-0.0985597372,1.32910579 -0.0985597372,0.689918161 0.295679212,0.295679212 C0.689918161,-0.0985597372 1.32910579,-0.0985597372 1.72334474,0.295679212 L16,14.5723345 L30.2766553,0.295679212 C30.6708942,-0.0985597372 31.3100818,-0.0985597372 31.7043208,0.295679212 C32.0985597,0.689918161 32.0985597,1.32910579 31.7043208,1.72334474 L17.4276655,16 Z" id="Path"></path>
            </g>
        </g>
    </g>
</svg>