<?xml version="1.0" encoding="UTF-8"?>
<svg width="594px" height="997px" viewBox="0 0 594 997" version="1.1" xmlns="http://www.w3.org/2000/svg" xmlns:xlink="http://www.w3.org/1999/xlink">
    <!-- Generator: Sketch 55.1 (78136) - https://sketchapp.com -->
    <title>footer-graphic</title>
    <desc>Created with Sketch.</desc>
    <g id="Page-1" stroke="none" stroke-width="1" fill="none" fill-rule="evenodd">
        <g id="Home" transform="translate(-814.000000, -6610.000000)" stroke-width="2">
            <g id="contact" transform="translate(0.000000, 6612.000000)">
                <g id="footer-graphic" transform="translate(816.000000, 0.000000)">
                    <path d="M193,914.734884 L193,994 L272.553846,994 C339.326872,994 388.312372,983.447332 419.502068,962.394406 C450.573811,941.421097 466.138462,903.013625 466.138462,847.055814 C466.138462,828.324832 465.616127,811.678725 464.571793,797.118051 C463.526957,782.550384 462.133954,768.50411 460.3928,754.978843 C458.647036,741.417768 457.250438,727.856823 456.20297,714.295615 C455.154721,700.72431 454.630769,685.592061 454.630769,668.897674 C454.630769,659.719118 456.756147,650.546943 461.000391,641.388822 C465.270564,632.174749 473.070275,623.877432 484.375997,616.488501 C495.639735,609.127008 510.562831,603.182268 529.147316,598.642517 C547.496469,594.160252 570.778151,591.556137 599,590.824786 L599,503.17522 C570.778151,502.443863 547.496469,499.839748 529.147316,495.357483 C510.562831,490.817732 495.639735,484.872992 484.375997,477.511499 C473.070275,470.122568 465.270564,461.825251 461.000391,452.611178 C456.756147,443.453057 454.630769,434.280882 454.630769,425.102326 C454.630769,409.102788 455.154714,394.144669 456.202824,380.227229 C457.2503,366.318202 458.64694,352.582977 460.3928,339.021157 C462.133867,325.49657 463.52684,311.277188 464.571676,296.362674 C465.616123,281.453707 466.138462,264.980854 466.138462,246.944186 C466.138462,190.986375 450.573811,152.578903 419.502068,131.605594 C388.312372,110.552668 339.326872,100 272.553846,100 L193,100 L193,179.265116 L234.892308,179.265116 C256.559589,179.265116 274.21773,180.30981 287.874524,182.402232 C301.62007,184.508253 312.402416,188.381009 320.217359,194.041278 C328.06018,199.72174 333.590484,207.361325 336.794446,216.933763 C339.971061,226.424498 341.553846,238.509385 341.553846,253.195349 C341.553846,280.995482 340.855981,308.448012 339.460215,335.553751 C338.066252,362.624484 337.369231,391.779224 337.369231,423.018605 C337.369231,462.384193 345.324745,490.803166 361.171967,508.300807 C377.039145,525.820481 403.689623,537.712275 441.148358,543.929776 L441.984615,544.06858 L441.984615,549.93142 L441.148358,550.070224 C403.689623,556.287725 377.039145,568.179519 361.171967,585.699193 C345.324745,603.196834 337.369231,631.615807 337.369231,670.981395 C337.369231,702.915087 338.066243,732.069449 339.460145,758.4449 C340.85597,784.856746 341.553846,812.309704 341.553846,840.804651 C341.553846,855.490615 339.971061,867.575502 336.794446,877.066237 C333.590484,886.638675 328.06018,894.27826 320.217359,899.958722 C312.402416,905.618991 301.62007,909.491747 287.874524,911.597768 C274.21773,913.69019 256.559589,914.734884 234.892308,914.734884 L193,914.734884 Z" id="}););" stroke="#3D3D3D" fill-rule="nonzero"></path>
                    <polygon id="Fill-136" stroke="#006AEF" points="224 844 0 623.557108 135.315535 490.377829 154.531565 509.27616 38.4065578 623.557108 224 806.190788 409.606193 623.557108 0 220.45544 224 0 448 220.45544 312.684465 353.622171 293.468435 334.736388 409.606193 220.45544 224 37.8092123 38.4065578 220.45544 448 623.557108"></polygon>
                </g>
            </g>
        </g>
    </g>
</svg>