<?xml version="1.0" encoding="UTF-8"?>
<svg width="720px" height="800px" viewBox="0 0 720 800" version="1.1" xmlns="http://www.w3.org/2000/svg" xmlns:xlink="http://www.w3.org/1999/xlink">
    <!-- Generator: Sketch 55.1 (78136) - https://sketchapp.com -->
    <title>hero-background</title>
    <desc>Created with Sketch.</desc>
    <defs>
        <rect id="path-1" x="0" y="0" width="720" height="800"></rect>
    </defs>
    <g id="Page-1" stroke="none" stroke-width="1" fill="none" fill-rule="evenodd">
        <g id="Home" transform="translate(-688.000000, 0.000000)">
            <g id="hero" transform="translate(144.000000, 0.000000)">
                <g id="hero-background" transform="translate(544.000000, 0.000000)">
                    <mask id="mask-2" fill="white">
                        <use xlink:href="#path-1"></use>
                    </mask>
                    <use id="Mask" fill="#FFFFFF" xlink:href="#path-1"></use>
                    <g id="Group-19" mask="url(#mask-2)" fill-rule="nonzero" stroke="#F2F2F2" stroke-width="2">
                        <g transform="translate(30.000000, -86.112500)">
                            <path d="M429,421.514784 L508.839358,368.149124 L508.839358,396.539655 L454.027363,431.974454 L454.027363,432.828305 L508.839358,468.263103 L508.839358,496.653635 L429,443.287974 L429,421.514784 Z M541.950392,537.425 L516.509353,537.425 L584.558961,351.7125 L610,351.7125 L541.950392,537.425 Z" id="&lt;/"></path>
                            <polygon id="&lt;/-copy" transform="translate(659.500000, 332.000000) rotate(-180.000000) translate(-659.500000, -332.000000) " points="620 321.10108 699 267.675 699 296.097674 644.764249 331.572591 644.764249 332.427409 699 367.902326 699 396.325 620 342.89892"></polygon>
                            <path d="M450.197436,749.781948 C455.337633,749.781948 459.524343,749.524988 462.757692,749.011061 C465.991042,748.497134 468.519649,747.554949 470.34359,746.184477 C472.16753,744.814005 473.45256,742.972461 474.198718,740.659789 C474.944876,738.347118 475.317949,735.392082 475.317949,731.794593 C475.317949,724.770924 475.152138,718.00432 474.820513,711.494578 C474.488887,704.984837 474.323077,697.789967 474.323077,689.909753 C474.323077,680.14514 476.229895,673.07875 480.04359,668.710371 C483.857284,664.341991 490.240981,661.386955 499.194872,659.845174 L499.194872,658.817326 C490.240981,657.275545 483.857284,654.320509 480.04359,649.952129 C476.229895,645.58375 474.323077,638.51736 474.323077,628.752747 C474.323077,621.043842 474.488887,613.848972 474.820513,607.167922 C475.152138,600.486871 475.317949,593.720267 475.317949,586.867907 C475.317949,583.270418 474.944876,580.315382 474.198718,578.002711 C473.45256,575.690039 472.16753,573.848495 470.34359,572.478023 C468.519649,571.107551 465.991042,570.165366 462.757692,569.651439 C459.524343,569.137512 455.337633,568.880552 450.197436,568.880552 L440,568.880552 L440,548.8375 L459.151282,548.8375 C475.06931,548.8375 486.758937,551.449923 494.220513,556.674847 C501.682089,561.899772 505.412821,571.450105 505.412821,585.326134 C505.412821,589.780168 505.288463,593.848695 505.039744,597.531839 C504.791024,601.214982 504.459404,604.726764 504.044872,608.067289 C503.63034,611.407815 503.298719,614.791117 503.05,618.217297 C502.801281,621.643476 502.676923,625.326565 502.676923,629.266672 C502.676923,631.493688 503.174354,633.720672 504.169231,635.947689 C505.164108,638.174706 506.988021,640.187556 509.641026,641.986301 C512.29403,643.785045 515.817499,645.24115 520.211538,646.354658 C524.605578,647.468167 530.201675,648.110566 537,648.281875 L537,670.380625 C530.201675,670.551934 524.605578,671.194333 520.211538,672.307842 C515.817499,673.42135 512.29403,674.877455 509.641026,676.676199 C506.988021,678.474944 505.164108,680.487794 504.169231,682.714811 C503.174354,684.941828 502.676923,687.168812 502.676923,689.395828 C502.676923,693.507244 502.801281,697.233159 503.05,700.573685 C503.298719,703.91421 503.63034,707.254685 504.044872,710.595211 C504.459404,713.935736 504.791024,717.404691 505.039744,721.00218 C505.288463,724.599669 505.412821,728.711023 505.412821,733.336366 C505.412821,747.212395 501.682089,756.762728 494.220513,761.987653 C486.758937,767.212577 475.06931,769.825 459.151282,769.825 L440,769.825 L440,749.781948 L450.197436,749.781948 Z" id="}"></path>
                            <path d="M575.408451,540.147329 C575.408451,536.09931 576.071883,532.334709 577.398768,528.853413 C578.725652,525.372117 580.559847,522.336149 582.901408,519.745417 C585.242969,517.154685 588.091826,515.130706 591.448063,513.673419 C594.804301,512.216132 598.511717,511.4875 602.570423,511.4875 C606.629128,511.4875 610.336544,512.216132 613.692782,513.673419 C617.049019,515.130706 619.897876,517.154685 622.239437,519.745417 C624.580998,522.336149 626.415193,525.372117 627.742077,528.853413 C629.068962,532.334709 629.732394,536.09931 629.732394,540.147329 C629.732394,548.243366 627.234767,555.003456 622.239437,560.427801 C617.244106,565.852146 610.687834,568.564278 602.570423,568.564278 C594.453011,568.564278 587.896739,565.852146 582.901408,560.427801 C577.906078,555.003456 575.408451,548.243366 575.408451,540.147329 Z M575,676.255678 C595.350979,668.949483 605.526316,657.422103 605.526316,641.673193 C604.900132,641.835553 604.039142,641.916732 602.94332,641.916732 C599.655854,641.916732 596.485845,641.38907 593.433198,640.333731 C590.380552,639.278391 587.680174,637.695406 585.331984,635.584727 C582.983794,633.474049 581.10527,630.876329 579.696356,627.791491 C578.287442,624.706653 577.582996,621.134789 577.582996,617.075792 C577.582996,609.444877 580.12683,603.356472 585.214575,598.810395 C590.30232,594.264318 596.524929,591.991313 603.882591,591.991313 C613.588443,591.991313 620.867722,595.684945 625.720648,603.072321 C630.573574,610.459696 633,620.728805 633,633.879957 C633,649.466507 628.851593,662.617461 620.554656,673.333215 C612.257718,684.048968 599.969042,692.004483 583.688259,697.2 L575,676.255678 Z" id=";"></path>
                            <path d="M488,288.111156 C488,287.628719 488.232498,287.3875 488.6975,287.3875 L549.3025,287.3875 C549.7675,287.3875 550,287.655515 550,288.191562 L550,351.7125 L534.5,335.63125 L488.6975,335.63125 C488.232498,335.63125 488,335.390031 488,334.907594 L488,288.111156 Z" id="Fill-1"></path>
                            <path d="M537,740.414469 C537,739.963156 537.217498,739.7375 537.6525,739.7375 L594.3475,739.7375 C594.7825,739.7375 595,739.988223 595,740.489688 L595,799.9125 L580.5,784.86875 L537.6525,784.86875 C537.217498,784.86875 537,784.643094 537,784.191781 L537,740.414469 Z" id="Fill-1-Copy-2" transform="translate(566.000000, 769.825000) scale(-1, 1) translate(-566.000000, -769.825000) "></path>
                            <path d="M659,182.924219 C659,187.209325 657.80209,191.082357 655.406252,194.543406 C653.010397,198.004455 649.895855,200.394191 646.062504,201.712686 C645.902775,208.634802 644.145855,214.238331 640.791675,218.523437 C638.715262,221.160429 635.880225,223.261755 632.286459,224.827469 C628.692694,226.393184 625.618072,227.423233 623.062504,227.917671 C620.506937,228.412109 616.99308,228.824129 612.520829,229.153767 C604.534686,229.977824 599.263909,231.049083 596.708325,232.367578 C595.111099,233.191636 593.913207,234.262894 593.114577,235.58139 C596.788216,237.064704 599.743045,239.495649 601.979171,242.874298 C604.215297,246.252946 605.333333,250.002351 605.333333,254.122656 C605.333333,259.561454 603.456621,264.217324 599.703126,268.090405 C595.949631,271.963487 591.437531,273.9 586.166667,273.9 C580.895806,273.9 576.383699,271.963487 572.630209,268.090405 C568.876718,264.217324 567,259.561454 567,254.122656 C567,251.156046 567.559022,248.395481 568.677083,245.84089 C569.795144,243.286299 571.39235,241.102573 573.46875,239.289657 C575.545149,237.476724 577.861098,236.158246 580.416667,235.334189 L580.416667,185.890811 C576.423592,184.737134 573.189248,182.429799 570.713542,178.96875 C568.237835,175.507701 567,171.552269 567,167.102344 C567,161.663543 568.876718,157.00768 572.630209,153.134594 C576.383699,149.261507 580.895806,147.325 586.166667,147.325 C591.437531,147.325 595.949631,149.261507 599.703126,153.134594 C603.456621,157.00768 605.333333,161.663543 605.333333,167.102344 C605.333333,171.552269 604.095504,175.507701 601.619793,178.96875 C599.144082,182.429799 595.909747,184.737134 591.916667,185.890811 L591.916667,221.49003 C595.750018,219.677114 602.218704,218.276218 611.322919,217.28736 C615.15627,216.957723 618.031243,216.669313 619.94791,216.422094 C621.864594,216.174875 624.020829,215.598036 626.416667,214.691578 C628.812504,213.785102 630.569442,212.590234 631.687496,211.106938 C633.44445,208.964385 634.402775,205.915392 634.562504,201.959905 C631.847208,201.135848 629.451405,199.81737 627.374991,198.004437 C625.298595,196.191503 623.661468,193.966586 622.463541,191.329594 C621.265613,188.692603 620.666667,185.890829 620.666667,182.924219 C620.666667,177.485418 622.543379,172.829555 626.296874,168.956469 C630.050369,165.083382 634.562469,163.146875 639.833333,163.146875 C645.104197,163.146875 649.616298,165.083382 653.369793,168.956469 C657.123288,172.829555 659,177.485418 659,182.924219 Z M588.80209,164.382952 C588.163189,163.558895 587.284721,163.146875 586.166667,163.146875 C585.048613,163.146875 584.130212,163.517704 583.411458,164.259343 C582.692705,165.001 582.333333,165.948667 582.333333,167.102344 C582.333333,168.256021 582.692705,169.203688 583.411458,169.945345 C584.130212,170.686984 585.048613,171.057812 586.166667,171.057812 C587.284721,171.057812 588.203126,170.686984 588.921883,169.945345 C589.640622,169.203688 590,168.256021 590,167.102344 C590,165.948667 589.600702,165.042209 588.80209,164.382952 Z M583.291667,257.089258 C584.090281,257.748506 585.048613,258.078125 586.166667,258.078125 C587.284721,258.078125 588.203126,257.707304 588.921883,256.96565 C589.640622,256.223995 590,255.276333 590,254.122656 C590,252.968979 589.640622,252.021312 588.921883,251.279655 C588.203126,250.538016 587.284721,250.167187 586.166667,250.167187 C585.048613,250.167187 584.130212,250.538016 583.411458,251.279655 C582.692705,252.021312 582.333333,252.968979 582.333333,254.122656 C582.333333,255.276333 582.652775,256.265199 583.291667,257.089258 Z M642.468757,180.204827 C641.829856,179.38077 640.951387,178.96875 639.833333,178.96875 C638.715279,178.96875 637.796874,179.339579 637.078117,180.081218 C636.359378,180.822875 636,181.770542 636,182.924219 C636,184.077896 636.359378,185.025563 637.078117,185.76722 C637.796874,186.508859 638.715279,186.879687 639.833333,186.879687 C640.951387,186.879687 641.869793,186.508859 642.588549,185.76722 C643.307288,185.025563 643.666667,184.077896 643.666667,182.924219 C643.666667,181.770542 643.267369,180.864084 642.468757,180.204827 Z" id="Fill-1"></path>
                            <path d="M772.846754,584.1125 C774.349782,584.1125 775.584417,584.612728 776.55066,585.613159 C777.516879,586.613615 778,587.891966 778,589.448214 L778,628.799101 C778,632.35626 776.389619,634.801786 773.168834,636.135702 C769.948026,637.469643 767.156722,636.91385 764.794803,634.468301 L754.48831,623.796872 L723.568832,655.811158 C721.421642,657.812069 718.952395,658.8125 716.161043,658.8125 C713.369692,658.8125 710.900445,657.812069 708.753255,655.811158 L685.241565,631.133473 L670.425988,646.47367 C668.064069,649.141527 665.594822,649.141527 663.018199,646.47367 L655.932467,639.137044 C653.355844,636.469187 653.355844,633.912508 655.932467,631.466958 L677.833776,608.456699 C679.980966,606.455788 682.450213,605.455357 685.241565,605.455357 C688.032917,605.455357 690.502164,606.455788 692.649354,608.456699 L716.161043,633.134384 L739.672733,608.456699 L729.36624,597.785271 C727.004322,595.339721 726.467536,592.449581 727.75586,589.114729 C729.044159,585.779902 731.406054,584.1125 734.841567,584.1125 L772.846754,584.1125 Z" id="Fill-1"></path>
                            <path d="M674.291209,482.672406 C670.100712,482.672406 666.237655,481.854439 662.701923,480.21848 C659.166191,478.582522 656.088841,476.264949 653.46978,473.265692 C650.85072,470.266435 648.820978,466.619666 647.380495,462.325276 C645.940011,458.030885 645.21978,453.22533 645.21978,447.908465 C645.21978,442.591601 645.940011,437.854209 647.380495,433.696149 C648.820978,429.538088 650.85072,425.993565 653.46978,423.062473 C656.088841,420.131381 659.166191,417.881972 662.701923,416.314178 C666.237655,414.746385 670.100712,413.9625 674.291209,413.9625 C678.481706,413.9625 682.344763,414.746385 685.880495,416.314178 C689.416226,417.881972 692.493577,420.131381 695.112637,423.062473 C697.731698,425.993565 699.76144,429.538088 701.201923,433.696149 C702.642406,437.854209 703.362637,442.591601 703.362637,447.908465 C703.362637,453.22533 702.642406,458.030885 701.201923,462.325276 C699.76144,466.619666 697.731698,470.266435 695.112637,473.265692 C692.493577,476.264949 689.416226,478.582522 685.880495,480.21848 C682.344763,481.854439 678.481706,482.672406 674.291209,482.672406 Z M674.494505,466.555267 C676.962314,466.555267 679.137849,465.189153 681.021177,462.456882 C682.904504,459.724612 683.846154,454.874904 683.846154,447.907614 C683.846154,440.940325 682.904504,436.227229 681.021177,433.768185 C679.137849,431.309142 676.962314,430.079638 674.494505,430.079638 C672.026697,430.079638 669.851162,431.309142 667.967834,433.768185 C666.084507,436.227229 665.142857,440.940325 665.142857,447.907614 C665.142857,454.874904 666.084507,459.724612 667.967834,462.456882 C669.851162,465.189153 672.026697,466.555267 674.494505,466.555267 Z M644,525.80144 L680.377243,490.30684 L690.351648,499.949881 L658.668243,540.778931 L644,525.80144 Z M755,433.968976 L718.622757,469.524214 L708.648352,459.715872 L740.331757,419.052123 L755,433.968976 Z M724.302198,548.8375 C720.111701,548.8375 716.248644,548.019533 712.712912,546.383575 C709.17718,544.747616 706.09983,542.430044 703.480769,539.430787 C700.861709,536.43153 698.831967,532.784761 697.391484,528.49037 C695.951,524.19598 695.230769,519.390424 695.230769,514.07356 C695.230769,508.756695 695.951,504.019304 697.391484,499.861243 C698.831967,495.703182 700.861709,492.158659 703.480769,489.227567 C706.09983,486.296475 709.17718,484.047066 712.712912,482.479273 C716.248644,480.911479 720.111701,480.127594 724.302198,480.127594 C728.492695,480.127594 732.355752,480.911479 735.891484,482.479273 C739.427215,484.047066 742.504566,486.296475 745.123626,489.227567 C747.742687,492.158659 749.772429,495.703182 751.212912,499.861243 C752.653395,504.019304 753.373626,508.756695 753.373626,514.07356 C753.373626,519.390424 752.653395,524.19598 751.212912,528.49037 C749.772429,532.784761 747.742687,536.43153 745.123626,539.430787 C742.504566,542.430044 739.427215,544.747616 735.891484,546.383575 C732.355752,548.019533 728.492695,548.8375 724.302198,548.8375 Z M724.505495,532.720362 C726.973303,532.720362 729.148838,531.354247 731.032166,528.621976 C732.915493,525.889706 733.857143,521.039998 733.857143,514.072709 C733.857143,507.105419 732.915493,502.392323 731.032166,499.933279 C729.148838,497.474236 726.973303,496.244733 724.505495,496.244733 C722.037686,496.244733 719.862151,497.474236 717.978823,499.933279 C716.095496,502.392323 715.153846,507.105419 715.153846,514.072709 C715.153846,521.039998 716.095496,525.889706 717.978823,528.621976 C719.862151,531.354247 722.037686,532.720362 724.505495,532.720362 Z" id="%"></path>
                            <path d="M687.076253,736.472105 C683.161927,733.55981 679.443373,731.375621 675.920479,729.919474 C672.397586,728.463326 668.343523,727.735263 663.75817,727.735263 C656.041356,727.735263 652.183007,730.414535 652.183007,735.773158 C652.183007,737.87001 653.385246,739.617361 655.78976,741.015263 C658.194275,742.413165 661.213853,743.811046 664.848584,745.208947 C668.483315,746.606849 672.397583,748.12122 676.591503,749.752105 C680.785424,751.382991 684.699691,753.450689 688.334423,755.955263 C691.969154,758.459837 694.988732,761.517701 697.393246,765.128947 C699.797761,768.740193 701,773.166816 701,778.408947 C701,785.747931 698.595522,792.125762 693.786492,797.542632 C688.977463,802.959501 681.875864,806.483325 672.481481,808.114211 L672.481481,834.15 L656.041394,834.15 L656.041394,808.638421 C650.561338,808.055962 644.913609,806.570714 639.098039,804.182632 C633.282469,801.794549 628.24984,798.67844 624,794.834211 L634.736383,777.360526 C640.104602,780.738789 645.16519,783.388938 649.918301,785.311053 C654.671411,787.233168 659.731999,788.194211 665.100218,788.194211 C669.126382,788.194211 672.201878,787.49527 674.326797,786.097368 C676.451717,784.699467 677.514161,782.777381 677.514161,780.331053 C677.514161,777.884725 676.311922,775.846149 673.907407,774.215263 C671.502893,772.584378 668.483315,771.011762 664.848584,769.497368 C661.213853,767.982975 657.271626,766.410359 653.021786,764.779474 C648.771947,763.148588 644.82972,761.110012 641.194989,758.663684 C637.560258,756.217356 634.54068,753.188615 632.136166,749.577368 C629.731651,745.966122 628.529412,741.481255 628.529412,736.122632 C628.529412,728.550664 630.989808,722.2602 635.910675,717.251053 C640.831542,712.241905 647.541715,709.038428 656.041394,707.640526 L656.041394,684.75 L672.481481,684.75 L672.481481,707.465789 C678.297052,708.281232 683.35764,709.941216 687.663399,712.445789 C691.969157,714.950363 695.855466,718.066473 699.32244,721.794211 L687.076253,736.472105 Z" id="$"></path>
                            <path d="M0,69.8022845 L79.3982561,16.4366236 L79.3982561,44.8271552 L24.8890907,80.261954 L24.8890907,81.1158046 L79.3982561,116.550603 L79.3982561,144.941135 L0,91.5754741 L0,69.8022845 Z M112.326357,185.7125 L87.0258762,185.7125 L154.699519,0 L180,0 L112.326357,185.7125 Z" id="&lt;/"></path>
                            <path d="M204.092308,279.794448 C209.179513,279.794448 213.323061,279.537488 216.523077,279.023561 C219.723093,278.509634 222.225632,277.567449 224.030769,276.196977 C225.835906,274.826505 227.107689,272.984961 227.846154,270.672289 C228.584619,268.359618 228.953846,265.404582 228.953846,261.807093 C228.953846,254.783424 228.789745,248.01682 228.461538,241.507078 C228.133332,234.997337 227.969231,227.802467 227.969231,219.922253 C227.969231,210.15764 229.856391,203.09125 233.630769,198.722871 C237.405147,194.354491 243.723033,191.399455 252.584615,189.857674 L252.584615,188.829826 C243.723033,187.288045 237.405147,184.333009 233.630769,179.964629 C229.856391,175.59625 227.969231,168.52986 227.969231,158.765247 C227.969231,151.056342 228.133332,143.861472 228.461538,137.180422 C228.789745,130.499371 228.953846,123.732767 228.953846,116.880407 C228.953846,113.282918 228.584619,110.327882 227.846154,108.015211 C227.107689,105.702539 225.835906,103.860995 224.030769,102.490523 C222.225632,101.120051 219.723093,100.177866 216.523077,99.663939 C213.323061,99.150012 209.179513,98.8930523 204.092308,98.8930523 L194,98.8930523 L194,78.85 L212.953846,78.85 C228.707771,78.85 240.276886,81.462423 247.661538,86.6873474 C255.046191,91.9122718 258.738462,101.462605 258.738462,115.338634 C258.738462,119.792668 258.615386,123.861195 258.369231,127.544339 C258.123076,131.227482 257.794874,134.739264 257.384615,138.079789 C256.974357,141.420315 256.646155,144.803617 256.4,148.229797 C256.153845,151.655976 256.030769,155.339065 256.030769,159.279172 C256.030769,161.506188 256.523072,163.733172 257.507692,165.960189 C258.492313,168.187206 260.297423,170.200056 262.923077,171.998801 C265.548731,173.797545 269.035876,175.25365 273.384615,176.367158 C277.733355,177.480667 283.271761,178.123066 290,178.294375 L290,200.393125 C283.271761,200.564434 277.733355,201.206833 273.384615,202.320342 C269.035876,203.43385 265.548731,204.889955 262.923077,206.688699 C260.297423,208.487444 258.492313,210.500294 257.507692,212.727311 C256.523072,214.954328 256.030769,217.181312 256.030769,219.408328 C256.030769,223.519744 256.153845,227.245659 256.4,230.586185 C256.646155,233.92671 256.974357,237.267185 257.384615,240.607711 C257.794874,243.948236 258.123076,247.417191 258.369231,251.01468 C258.615386,254.612169 258.738462,258.723523 258.738462,263.348866 C258.738462,277.224895 255.046191,286.775228 247.661538,292.000153 C240.276886,297.225077 228.707771,299.8375 212.953846,299.8375 L194,299.8375 L194,279.794448 L204.092308,279.794448 Z" id="}"></path>
                            <path d="M325.408451,81.5723287 C325.408451,77.5243101 326.071883,73.7597092 327.398768,70.2784132 C328.725652,66.7971171 330.559847,63.7611487 332.901408,61.1704167 C335.242969,58.5796848 338.091826,56.5557059 341.448063,55.0984191 C344.804301,53.6411324 348.511717,52.9125 352.570423,52.9125 C356.629128,52.9125 360.336544,53.6411324 363.692782,55.0984191 C367.049019,56.5557059 369.897876,58.5796848 372.239437,61.1704167 C374.580998,63.7611487 376.415193,66.7971171 377.742077,70.2784132 C379.068962,73.7597092 379.732394,77.5243101 379.732394,81.5723287 C379.732394,89.668366 377.234767,96.4284557 372.239437,101.852801 C367.244106,107.277146 360.687834,109.989278 352.570423,109.989278 C344.453011,109.989278 337.896739,107.277146 332.901408,101.852801 C327.906078,96.4284557 325.408451,89.668366 325.408451,81.5723287 Z M325,217.680678 C345.350979,210.374483 355.526316,198.847103 355.526316,183.098193 C354.900132,183.260553 354.039142,183.341732 352.94332,183.341732 C349.655854,183.341732 346.485845,182.81407 343.433198,181.758731 C340.380552,180.703391 337.680174,179.120406 335.331984,177.009727 C332.983794,174.899049 331.10527,172.301329 329.696356,169.216491 C328.287442,166.131653 327.582996,162.559789 327.582996,158.500792 C327.582996,150.869877 330.12683,144.781472 335.214575,140.235395 C340.30232,135.689318 346.524929,133.416313 353.882591,133.416313 C363.588443,133.416313 370.867722,137.109945 375.720648,144.497321 C380.573574,151.884696 383,162.153805 383,175.304957 C383,190.891507 378.851593,204.042461 370.554656,214.758215 C362.257718,225.473968 349.969042,233.429483 333.688259,238.625 L325,217.680678 Z" id=";"></path>
                            <path d="M329,388.701969 C329,388.250656 329.217498,388.025 329.6525,388.025 L386.3475,388.025 C386.7825,388.025 387,388.275723 387,388.777187 L387,448.2 L372.5,433.15625 L329.6525,433.15625 C329.217498,433.15625 329,432.930594 329,432.479281 L329,388.701969 Z" id="Fill-1-Copy-2" transform="translate(358.000000, 418.112500) scale(-1, 1) translate(-358.000000, -418.112500) "></path>
                            <path d="M443.846754,275.975 C445.349782,275.975 446.584417,276.475228 447.55066,277.475659 C448.516879,278.476115 449,279.754466 449,281.310714 L449,320.661601 C449,324.21876 447.389619,326.664286 444.168834,327.998202 C440.948026,329.332143 438.156722,328.77635 435.794803,326.330801 L425.48831,315.659372 L394.568832,347.673658 C392.421642,349.674569 389.952395,350.675 387.161043,350.675 C384.369692,350.675 381.900445,349.674569 379.753255,347.673658 L356.241565,322.995973 L341.425988,338.33617 C339.064069,341.004027 336.594822,341.004027 334.018199,338.33617 L326.932467,330.999544 C324.355844,328.331687 324.355844,325.775008 326.932467,323.329458 L348.833776,300.319199 C350.980966,298.318288 353.450213,297.317857 356.241565,297.317857 C359.032917,297.317857 361.502164,298.318288 363.649354,300.319199 L387.161043,324.996884 L410.672733,300.319199 L400.36624,289.647771 C398.004322,287.202221 397.467536,284.312081 398.75586,280.977229 C400.044159,277.642402 402.406054,275.975 405.841567,275.975 L443.846754,275.975 Z" id="Fill-1"></path>
                            <path d="M447.291209,172.459906 C443.100712,172.459906 439.237655,171.641939 435.701923,170.00598 C432.166191,168.370022 429.088841,166.052449 426.46978,163.053192 C423.85072,160.053935 421.820978,156.407166 420.380495,152.112776 C418.940011,147.818385 418.21978,143.01283 418.21978,137.695965 C418.21978,132.379101 418.940011,127.641709 420.380495,123.483649 C421.820978,119.325588 423.85072,115.781065 426.46978,112.849973 C429.088841,109.918881 432.166191,107.669472 435.701923,106.101678 C439.237655,104.533885 443.100712,103.75 447.291209,103.75 C451.481706,103.75 455.344763,104.533885 458.880495,106.101678 C462.416226,107.669472 465.493577,109.918881 468.112637,112.849973 C470.731698,115.781065 472.76144,119.325588 474.201923,123.483649 C475.642406,127.641709 476.362637,132.379101 476.362637,137.695965 C476.362637,143.01283 475.642406,147.818385 474.201923,152.112776 C472.76144,156.407166 470.731698,160.053935 468.112637,163.053192 C465.493577,166.052449 462.416226,168.370022 458.880495,170.00598 C455.344763,171.641939 451.481706,172.459906 447.291209,172.459906 Z M447.494505,156.342767 C449.962314,156.342767 452.137849,154.976653 454.021177,152.244382 C455.904504,149.512112 456.846154,144.662404 456.846154,137.695114 C456.846154,130.727825 455.904504,126.014729 454.021177,123.555685 C452.137849,121.096642 449.962314,119.867138 447.494505,119.867138 C445.026697,119.867138 442.851162,121.096642 440.967834,123.555685 C439.084507,126.014729 438.142857,130.727825 438.142857,137.695114 C438.142857,144.662404 439.084507,149.512112 440.967834,152.244382 C442.851162,154.976653 445.026697,156.342767 447.494505,156.342767 Z M417,215.58894 L453.377243,180.09434 L463.351648,189.737381 L431.668243,230.566431 L417,215.58894 Z M528,123.756476 L491.622757,159.311714 L481.648352,149.503372 L513.331757,108.839623 L528,123.756476 Z M497.302198,238.625 C493.111701,238.625 489.248644,237.807033 485.712912,236.171075 C482.17718,234.535116 479.09983,232.217544 476.480769,229.218287 C473.861709,226.21903 471.831967,222.572261 470.391484,218.27787 C468.951,213.98348 468.230769,209.177924 468.230769,203.86106 C468.230769,198.544195 468.951,193.806804 470.391484,189.648743 C471.831967,185.490682 473.861709,181.946159 476.480769,179.015067 C479.09983,176.083975 482.17718,173.834566 485.712912,172.266773 C489.248644,170.698979 493.111701,169.915094 497.302198,169.915094 C501.492695,169.915094 505.355752,170.698979 508.891484,172.266773 C512.427215,173.834566 515.504566,176.083975 518.123626,179.015067 C520.742687,181.946159 522.772429,185.490682 524.212912,189.648743 C525.653395,193.806804 526.373626,198.544195 526.373626,203.86106 C526.373626,209.177924 525.653395,213.98348 524.212912,218.27787 C522.772429,222.572261 520.742687,226.21903 518.123626,229.218287 C515.504566,232.217544 512.427215,234.535116 508.891484,236.171075 C505.355752,237.807033 501.492695,238.625 497.302198,238.625 Z M497.505495,222.507862 C499.973303,222.507862 502.148838,221.141747 504.032166,218.409476 C505.915493,215.677206 506.857143,210.827498 506.857143,203.860209 C506.857143,196.892919 505.915493,192.179823 504.032166,189.720779 C502.148838,187.261736 499.973303,186.032233 497.505495,186.032233 C495.037686,186.032233 492.862151,187.261736 490.978823,189.720779 C489.095496,192.179823 488.153846,196.892919 488.153846,203.860209 C488.153846,210.827498 489.095496,215.677206 490.978823,218.409476 C492.862151,221.141747 495.037686,222.507862 497.505495,222.507862 Z" id="%"></path>
                            <path d="M276.257081,409.659605 C272.39359,406.74731 268.723329,404.563121 265.246187,403.106974 C261.769046,401.650826 257.767633,400.922763 253.24183,400.922763 C245.625234,400.922763 241.816993,403.602035 241.816993,408.960658 C241.816993,411.05751 243.003619,412.804861 245.376906,414.202763 C247.750193,415.600665 250.730556,416.998546 254.318083,418.396447 C257.90561,419.794349 261.769042,421.30872 265.908497,422.939605 C270.047951,424.570491 273.911384,426.638189 277.498911,429.142763 C281.086438,431.647337 284.0668,434.705201 286.440087,438.316447 C288.813374,441.927693 290,446.354316 290,451.596447 C290,458.935431 287.626748,465.313262 282.880174,470.730132 C278.1336,476.147001 271.124229,479.670825 261.851852,481.301711 L261.851852,507.3375 L245.625272,507.3375 L245.625272,481.825921 C240.216385,481.243462 234.642004,479.758214 228.901961,477.370132 C223.161918,474.982049 218.194647,471.86594 214,468.021711 L224.59695,450.548026 C229.895451,453.926289 234.890318,456.576438 239.581699,458.498553 C244.273081,460.420668 249.267947,461.381711 254.566449,461.381711 C258.540325,461.381711 261.575879,460.68277 263.673203,459.284868 C265.770526,457.886967 266.819172,455.964881 266.819172,453.518553 C266.819172,451.072225 265.632546,449.033649 263.259259,447.402763 C260.885972,445.771878 257.90561,444.199262 254.318083,442.684868 C250.730556,441.170475 246.839527,439.597859 242.64488,437.966974 C238.450233,436.336088 234.559205,434.297512 230.971678,431.851184 C227.384151,429.404856 224.403788,426.376115 222.030501,422.764868 C219.657214,419.153622 218.470588,414.668755 218.470588,409.310132 C218.470588,401.738164 220.899032,395.4477 225.755991,390.438553 C230.612951,385.429405 237.235978,382.225928 245.625272,380.828026 L245.625272,357.9375 L261.851852,357.9375 L261.851852,380.653289 C267.591895,381.468732 272.586762,383.128716 276.836601,385.633289 C281.086441,388.137863 284.922278,391.253973 288.344227,394.981711 L276.257081,409.659605 Z" id="$"></path>
                            <path d="M259,684.002284 L338.839358,630.636624 L338.839358,659.027155 L284.027363,694.461954 L284.027363,695.315805 L338.839358,730.750603 L338.839358,759.141135 L259,705.775474 L259,684.002284 Z M371.950392,799.9125 L346.509353,799.9125 L414.558961,614.2 L440,614.2 L371.950392,799.9125 Z" id="&lt;/"></path>
                            <path d="M142.197436,745.631948 C147.337633,745.631948 151.524343,745.374988 154.757692,744.861061 C157.991042,744.347134 160.519649,743.404949 162.34359,742.034477 C164.16753,740.664005 165.45256,738.822461 166.198718,736.509789 C166.944876,734.197118 167.317949,731.242082 167.317949,727.644593 C167.317949,720.620924 167.152138,713.85432 166.820513,707.344578 C166.488887,700.834837 166.323077,693.639967 166.323077,685.759753 C166.323077,675.99514 168.229895,668.92875 172.04359,664.560371 C175.857284,660.191991 182.240981,657.236955 191.194872,655.695174 L191.194872,654.667326 C182.240981,653.125545 175.857284,650.170509 172.04359,645.802129 C168.229895,641.43375 166.323077,634.36736 166.323077,624.602747 C166.323077,616.893842 166.488887,609.698972 166.820513,603.017922 C167.152138,596.336871 167.317949,589.570267 167.317949,582.717907 C167.317949,579.120418 166.944876,576.165382 166.198718,573.852711 C165.45256,571.540039 164.16753,569.698495 162.34359,568.328023 C160.519649,566.957551 157.991042,566.015366 154.757692,565.501439 C151.524343,564.987512 147.337633,564.730552 142.197436,564.730552 L132,564.730552 L132,544.6875 L151.151282,544.6875 C167.06931,544.6875 178.758937,547.299923 186.220513,552.524847 C193.682089,557.749772 197.412821,567.300105 197.412821,581.176134 C197.412821,585.630168 197.288463,589.698695 197.039744,593.381839 C196.791024,597.064982 196.459404,600.576764 196.044872,603.917289 C195.63034,607.257815 195.298719,610.641117 195.05,614.067297 C194.801281,617.493476 194.676923,621.176565 194.676923,625.116672 C194.676923,627.343688 195.174354,629.570672 196.169231,631.797689 C197.164108,634.024706 198.988021,636.037556 201.641026,637.836301 C204.29403,639.635045 207.817499,641.09115 212.211538,642.204658 C216.605578,643.318167 222.201675,643.960566 229,644.131875 L229,666.230625 C222.201675,666.401934 216.605578,667.044333 212.211538,668.157842 C207.817499,669.27135 204.29403,670.727455 201.641026,672.526199 C198.988021,674.324944 197.164108,676.337794 196.169231,678.564811 C195.174354,680.791828 194.676923,683.018812 194.676923,685.245828 C194.676923,689.357244 194.801281,693.083159 195.05,696.423685 C195.298719,699.76421 195.63034,703.104685 196.044872,706.445211 C196.459404,709.785736 196.791024,713.254691 197.039744,716.85218 C197.288463,720.449669 197.412821,724.561023 197.412821,729.186366 C197.412821,743.062395 193.682089,752.612728 186.220513,757.837653 C178.758937,763.062577 167.06931,765.675 151.151282,765.675 L132,765.675 L132,745.631948 L142.197436,745.631948 Z" id="}" transform="translate(180.500000, 655.181250) rotate(-180.000000) translate(-180.500000, -655.181250) "></path>
                            <path d="M260,810.534053 C260,807.421883 260.503767,804.527608 261.511315,801.851142 C262.518863,799.174676 263.911629,796.840584 265.689655,794.848795 C267.467681,792.857006 269.630914,791.300944 272.179418,790.180563 C274.727922,789.060182 277.543088,788.5 280.625,788.5 C283.706912,788.5 286.522078,789.060182 289.070582,790.180563 C291.619086,791.300944 293.782319,792.857006 295.560345,794.848795 C297.338371,796.840584 298.731137,799.174676 299.738685,801.851142 C300.746233,804.527608 301.25,807.421883 301.25,810.534053 C301.25,816.758392 299.353467,821.955638 295.560345,826.125946 C291.767222,830.296253 286.788824,832.381376 280.625,832.381376 C274.461176,832.381376 269.482778,830.296253 265.689655,826.125946 C261.896533,821.955638 260,816.758392 260,810.534053 Z M260,914.685454 C275.438674,909.120759 283.157895,900.341038 283.157895,888.346029 C282.682859,888.469689 282.029694,888.531518 281.198381,888.531518 C278.704441,888.531518 276.299607,888.129629 273.983806,887.32584 C271.668005,886.522051 269.619442,885.316385 267.838057,883.708806 C266.056671,882.101228 264.631584,880.122699 263.562753,877.773161 C262.493922,875.423623 261.959514,872.703147 261.959514,869.611649 C261.959514,863.799635 263.889319,859.162458 267.748988,855.699981 C271.608656,852.237504 276.329257,850.506292 281.910931,850.506292 C289.273991,850.506292 294.796203,853.319512 298.477733,858.946037 C302.159263,864.572562 304,872.393933 304,882.410384 C304,894.281733 300.852933,904.298034 294.558704,912.459587 C288.264476,920.62114 278.942032,926.680384 266.591093,930.6375 L260,914.685454 Z" id=";"></path>
                            <path d="M420,516.999219 C420,521.284325 418.80209,525.157357 416.406252,528.618406 C414.010397,532.079455 410.895855,534.469191 407.062504,535.787686 C406.902775,542.709802 405.145855,548.313331 401.791675,552.598437 C399.715262,555.235429 396.880225,557.336755 393.286459,558.902469 C389.692694,560.468184 386.618072,561.498233 384.062504,561.992671 C381.506937,562.487109 377.99308,562.899129 373.520829,563.228767 C365.534686,564.052824 360.263909,565.124083 357.708325,566.442578 C356.111099,567.266636 354.913207,568.337894 354.114577,569.65639 C357.788216,571.139704 360.743045,573.570649 362.979171,576.949298 C365.215297,580.327946 366.333333,584.077351 366.333333,588.197656 C366.333333,593.636454 364.456621,598.292324 360.703126,602.165405 C356.949631,606.038487 352.437531,607.975 347.166667,607.975 C341.895806,607.975 337.383699,606.038487 333.630209,602.165405 C329.876718,598.292324 328,593.636454 328,588.197656 C328,585.231046 328.559022,582.470481 329.677083,579.91589 C330.795144,577.361299 332.39235,575.177573 334.46875,573.364657 C336.545149,571.551724 338.861098,570.233246 341.416667,569.409189 L341.416667,519.965811 C337.423592,518.812134 334.189248,516.504799 331.713542,513.04375 C329.237835,509.582701 328,505.627269 328,501.177344 C328,495.738543 329.876718,491.08268 333.630209,487.209594 C337.383699,483.336507 341.895806,481.4 347.166667,481.4 C352.437531,481.4 356.949631,483.336507 360.703126,487.209594 C364.456621,491.08268 366.333333,495.738543 366.333333,501.177344 C366.333333,505.627269 365.095504,509.582701 362.619793,513.04375 C360.144082,516.504799 356.909747,518.812134 352.916667,519.965811 L352.916667,555.56503 C356.750018,553.752114 363.218704,552.351218 372.322919,551.36236 C376.15627,551.032723 379.031243,550.744313 380.94791,550.497094 C382.864594,550.249875 385.020829,549.673036 387.416667,548.766578 C389.812504,547.860102 391.569442,546.665234 392.687496,545.181938 C394.44445,543.039385 395.402775,539.990392 395.562504,536.034905 C392.847208,535.210848 390.451405,533.89237 388.374991,532.079437 C386.298595,530.266503 384.661468,528.041586 383.463541,525.404594 C382.265613,522.767603 381.666667,519.965829 381.666667,516.999219 C381.666667,511.560418 383.543379,506.904555 387.296874,503.031469 C391.050369,499.158382 395.562469,497.221875 400.833333,497.221875 C406.104197,497.221875 410.616298,499.158382 414.369793,503.031469 C418.123288,506.904555 420,511.560418 420,516.999219 Z M349.80209,498.457952 C349.163189,497.633895 348.284721,497.221875 347.166667,497.221875 C346.048613,497.221875 345.130212,497.592704 344.411458,498.334343 C343.692705,499.076 343.333333,500.023667 343.333333,501.177344 C343.333333,502.331021 343.692705,503.278688 344.411458,504.020345 C345.130212,504.761984 346.048613,505.132812 347.166667,505.132812 C348.284721,505.132812 349.203126,504.761984 349.921883,504.020345 C350.640622,503.278688 351,502.331021 351,501.177344 C351,500.023667 350.600702,499.117209 349.80209,498.457952 Z M344.291667,591.164258 C345.090281,591.823506 346.048613,592.153125 347.166667,592.153125 C348.284721,592.153125 349.203126,591.782304 349.921883,591.04065 C350.640622,590.298995 351,589.351333 351,588.197656 C351,587.043979 350.640622,586.096312 349.921883,585.354655 C349.203126,584.613016 348.284721,584.242187 347.166667,584.242187 C346.048613,584.242187 345.130212,584.613016 344.411458,585.354655 C343.692705,586.096312 343.333333,587.043979 343.333333,588.197656 C343.333333,589.351333 343.652775,590.340199 344.291667,591.164258 Z M403.468757,514.279827 C402.829856,513.45577 401.951387,513.04375 400.833333,513.04375 C399.715279,513.04375 398.796874,513.414579 398.078117,514.156218 C397.359378,514.897875 397,515.845542 397,516.999219 C397,518.152896 397.359378,519.100563 398.078117,519.84222 C398.796874,520.583859 399.715279,520.954687 400.833333,520.954687 C401.951387,520.954687 402.869793,520.583859 403.588549,519.84222 C404.307288,519.100563 404.666667,518.152896 404.666667,516.999219 C404.666667,515.845542 404.267369,514.939084 403.468757,514.279827 Z" id="Fill-1"></path>
                            <path d="M198.846754,811.325 C200.349782,811.325 201.584417,811.825228 202.55066,812.825659 C203.516879,813.826115 204,815.104466 204,816.660714 L204,856.011601 C204,859.56876 202.389619,862.014286 199.168834,863.348202 C195.948026,864.682143 193.156722,864.12635 190.794803,861.680801 L180.48831,851.009372 L149.568832,883.023658 C147.421642,885.024569 144.952395,886.025 142.161043,886.025 C139.369692,886.025 136.900445,885.024569 134.753255,883.023658 L111.241565,858.345973 L96.4259876,873.68617 C94.0640692,876.354027 91.594822,876.354027 89.0181988,873.68617 L81.9324674,866.349544 C79.3558442,863.681687 79.3558442,861.125008 81.9324674,858.679458 L103.833776,835.669199 C105.980966,833.668288 108.450213,832.667857 111.241565,832.667857 C114.032917,832.667857 116.502164,833.668288 118.649354,835.669199 L142.161043,860.346884 L165.672733,835.669199 L155.36624,824.997771 C153.004322,822.552221 152.467536,819.662081 153.75586,816.327229 C155.044159,812.992402 157.406054,811.325 160.841567,811.325 L198.846754,811.325 Z" id="Fill-1"></path>
                            <path d="M494.291209,887.297406 C490.100712,887.297406 486.237655,886.479439 482.701923,884.84348 C479.166191,883.207522 476.088841,880.889949 473.46978,877.890692 C470.85072,874.891435 468.820978,871.244666 467.380495,866.950276 C465.940011,862.655885 465.21978,857.85033 465.21978,852.533465 C465.21978,847.216601 465.940011,842.479209 467.380495,838.321149 C468.820978,834.163088 470.85072,830.618565 473.46978,827.687473 C476.088841,824.756381 479.166191,822.506972 482.701923,820.939178 C486.237655,819.371385 490.100712,818.5875 494.291209,818.5875 C498.481706,818.5875 502.344763,819.371385 505.880495,820.939178 C509.416226,822.506972 512.493577,824.756381 515.112637,827.687473 C517.731698,830.618565 519.76144,834.163088 521.201923,838.321149 C522.642406,842.479209 523.362637,847.216601 523.362637,852.533465 C523.362637,857.85033 522.642406,862.655885 521.201923,866.950276 C519.76144,871.244666 517.731698,874.891435 515.112637,877.890692 C512.493577,880.889949 509.416226,883.207522 505.880495,884.84348 C502.344763,886.479439 498.481706,887.297406 494.291209,887.297406 Z M494.494505,871.180267 C496.962314,871.180267 499.137849,869.814153 501.021177,867.081882 C502.904504,864.349612 503.846154,859.499904 503.846154,852.532614 C503.846154,845.565325 502.904504,840.852229 501.021177,838.393185 C499.137849,835.934142 496.962314,834.704638 494.494505,834.704638 C492.026697,834.704638 489.851162,835.934142 487.967834,838.393185 C486.084507,840.852229 485.142857,845.565325 485.142857,852.532614 C485.142857,859.499904 486.084507,864.349612 487.967834,867.081882 C489.851162,869.814153 492.026697,871.180267 494.494505,871.180267 Z M464,930.42644 L500.377243,894.93184 L510.351648,904.574881 L478.668243,945.403931 L464,930.42644 Z M575,838.593976 L538.622757,874.149214 L528.648352,864.340872 L560.331757,823.677123 L575,838.593976 Z M544.302198,953.4625 C540.111701,953.4625 536.248644,952.644533 532.712912,951.008575 C529.17718,949.372616 526.09983,947.055044 523.480769,944.055787 C520.861709,941.05653 518.831967,937.409761 517.391484,933.11537 C515.951,928.82098 515.230769,924.015424 515.230769,918.69856 C515.230769,913.381695 515.951,908.644304 517.391484,904.486243 C518.831967,900.328182 520.861709,896.783659 523.480769,893.852567 C526.09983,890.921475 529.17718,888.672066 532.712912,887.104273 C536.248644,885.536479 540.111701,884.752594 544.302198,884.752594 C548.492695,884.752594 552.355752,885.536479 555.891484,887.104273 C559.427215,888.672066 562.504566,890.921475 565.123626,893.852567 C567.742687,896.783659 569.772429,900.328182 571.212912,904.486243 C572.653395,908.644304 573.373626,913.381695 573.373626,918.69856 C573.373626,924.015424 572.653395,928.82098 571.212912,933.11537 C569.772429,937.409761 567.742687,941.05653 565.123626,944.055787 C562.504566,947.055044 559.427215,949.372616 555.891484,951.008575 C552.355752,952.644533 548.492695,953.4625 544.302198,953.4625 Z M544.505495,937.345362 C546.973303,937.345362 549.148838,935.979247 551.032166,933.246976 C552.915493,930.514706 553.857143,925.664998 553.857143,918.697709 C553.857143,911.730419 552.915493,907.017323 551.032166,904.558279 C549.148838,902.099236 546.973303,900.869733 544.505495,900.869733 C542.037686,900.869733 539.862151,902.099236 537.978823,904.558279 C536.095496,907.017323 535.153846,911.730419 535.153846,918.697709 C535.153846,925.664998 536.095496,930.514706 537.978823,933.246976 C539.862151,935.979247 542.037686,937.345362 544.505495,937.345362 Z" id="%"></path>
                            <path d="M421.076253,870.309605 C417.161927,867.39731 413.443373,865.213121 409.920479,863.756974 C406.397586,862.300826 402.343523,861.572763 397.75817,861.572763 C390.041356,861.572763 386.183007,864.252035 386.183007,869.610658 C386.183007,871.70751 387.385246,873.454861 389.78976,874.852763 C392.194275,876.250665 395.213853,877.648546 398.848584,879.046447 C402.483315,880.444349 406.397583,881.95872 410.591503,883.589605 C414.785424,885.220491 418.699691,887.288189 422.334423,889.792763 C425.969154,892.297337 428.988732,895.355201 431.393246,898.966447 C433.797761,902.577693 435,907.004316 435,912.246447 C435,919.585431 432.595522,925.963262 427.786492,931.380132 C422.977463,936.797001 415.875864,940.320825 406.481481,941.951711 L406.481481,967.9875 L390.041394,967.9875 L390.041394,942.475921 C384.561338,941.893462 378.913609,940.408214 373.098039,938.020132 C367.282469,935.632049 362.24984,932.51594 358,928.671711 L368.736383,911.198026 C374.104602,914.576289 379.16519,917.226438 383.918301,919.148553 C388.671411,921.070668 393.731999,922.031711 399.100218,922.031711 C403.126382,922.031711 406.201878,921.33277 408.326797,919.934868 C410.451717,918.536967 411.514161,916.614881 411.514161,914.168553 C411.514161,911.722225 410.311922,909.683649 407.907407,908.052763 C405.502893,906.421878 402.483315,904.849262 398.848584,903.334868 C395.213853,901.820475 391.271626,900.247859 387.021786,898.616974 C382.771947,896.986088 378.82972,894.947512 375.194989,892.501184 C371.560258,890.054856 368.54068,887.026115 366.136166,883.414868 C363.731651,879.803622 362.529412,875.318755 362.529412,869.960132 C362.529412,862.388164 364.989808,856.0977 369.910675,851.088553 C374.831542,846.079405 381.541715,842.875928 390.041394,841.478026 L390.041394,818.5875 L406.481481,818.5875 L406.481481,841.303289 C412.297052,842.118732 417.35764,843.778716 421.663399,846.283289 C425.969157,848.787863 429.855466,851.903973 433.32244,855.631711 L421.076253,870.309605 Z" id="$"></path>
                        </g>
                    </g>
                </g>
            </g>
        </g>
    </g>
</svg>