<?xml version="1.0" encoding="UTF-8"?>
<svg width="48px" height="16px" viewBox="0 0 48 16" version="1.1" xmlns="http://www.w3.org/2000/svg" xmlns:xlink="http://www.w3.org/1999/xlink">
    <!-- Generator: Sketch 55.1 (78136) - https://sketchapp.com -->
    <title>hover-arrow</title>
    <desc>Created with Sketch.</desc>
    <g id="Page-1" stroke="none" stroke-width="1" fill="none" fill-rule="evenodd">
        <g id="Menu" transform="translate(-1024.000000, -325.000000)" fill="#006AEF" fill-rule="nonzero">
            <path d="M1067.44354,331.967766 L1059.24074,326.932088 C1058.78546,326.652596 1058.62399,326.023227 1058.88009,325.526353 C1059.13618,325.029479 1059.71285,324.853255 1060.16813,325.132747 L1071.51788,332.10033 C1072.16071,332.494957 1072.16071,333.505043 1071.51788,333.89967 L1060.16813,340.867253 C1059.71285,341.146745 1059.13618,340.970521 1058.88009,340.473647 C1058.62399,339.976773 1058.78546,339.347404 1059.24074,339.067912 L1067.44354,334.032234 L1024.94581,334.032234 C1024.42345,334.032234 1024,333.570087 1024,333 C1024,332.429913 1024.42345,331.967766 1024.94581,331.967766 L1067.44354,331.967766 L1067.44354,331.967766 Z" id="hover-arrow"></path>
        </g>
    </g>
</svg>