<?xml version="1.0" encoding="UTF-8"?>
<svg width="48px" height="48px" viewBox="0 0 48 48" version="1.1" xmlns="http://www.w3.org/2000/svg" xmlns:xlink="http://www.w3.org/1999/xlink">
    <!-- Generator: Sketch 55.1 (78136) - https://sketchapp.com -->
    <title>icon-github</title>
    <desc>Created with Sketch.</desc>
    <g id="Page-1" stroke="none" stroke-width="1" fill="none" fill-rule="evenodd">
        <g id="Home" transform="translate(-432.000000, -2112.000000)">
            <g id="about" transform="translate(0.000000, 800.000000)">
                <g id="contact-info" transform="translate(144.000000, 1216.000000)">
                    <g id="Group-8" transform="translate(288.000000, 96.000000)">
                        <g id="icon-github">
                            <circle id="Oval" fill="#000000" cx="24" cy="24" r="24"></circle>
                            <path d="M24.5001283,9 C15.9407659,9 9,15.8855922 9,24.3797582 C9,31.1749382 13.4412585,36.9399281 19.5999338,38.9735667 C20.3745808,39.1159341 20.6589774,38.6399328 20.6589774,38.2337144 C20.6589774,37.8669718 20.6446036,36.6554479 20.63793,35.3703207 C16.3257793,36.3006753 15.4158642,33.5557089 15.4158642,33.5557089 C14.7107762,31.778026 13.6948541,31.3053356 13.6948541,31.3053356 C12.2885283,30.3507861 13.8008611,30.3703966 13.8008611,30.3703966 C15.3573422,30.4788913 16.1769075,31.955285 16.1769075,31.955285 C17.5593625,34.3065125 19.8029642,33.6267653 20.6874684,33.2337904 C20.8265866,32.2397651 21.228284,31.5612913 21.6715628,31.1772304 C18.2287725,30.7883304 14.609646,29.4695851 14.609646,23.5764901 C14.609646,21.8973693 15.2151439,20.5253954 16.2066818,19.4483437 C16.0457462,19.0609719 15.5151977,17.4967128 16.3568371,15.378265 C16.3568371,15.378265 17.6584392,14.9649155 20.6204761,16.9547488 C21.8568826,16.6139838 23.182869,16.4430919 24.5001283,16.4372342 C25.8173877,16.4430919 27.1444007,16.6139838 28.3831174,16.9547488 C31.3415608,14.9649155 32.6413662,15.378265 32.6413662,15.378265 C33.485059,17.4967128 32.9542538,19.0609719 32.7933182,19.4483437 C33.7871662,20.5253954 34.3885572,21.8973693 34.3885572,23.5764901 C34.3885572,29.4835927 30.7625005,30.7842555 27.3109832,31.1650056 C27.8669427,31.6422803 28.3623266,32.578238 28.3623266,34.0131184 C28.3623266,36.0709519 28.3443593,37.7271512 28.3443593,38.2337144 C28.3443593,38.642989 28.6233658,39.1225559 29.4090499,38.9715292 C35.5643883,36.9355985 40,31.1726461 40,24.3797582 C40,15.8855922 33.0602608,9 24.5001283,9" id="Fill-5" fill="#FFFFFF"></path>
                        </g>
                    </g>
                </g>
            </g>
        </g>
    </g>
</svg>