<?xml version="1.0" encoding="UTF-8"?>
<svg width="48px" height="48px" viewBox="0 0 48 48" version="1.1" xmlns="http://www.w3.org/2000/svg" xmlns:xlink="http://www.w3.org/1999/xlink">
    <!-- Generator: Sketch 55.1 (78136) - https://sketchapp.com -->
    <title>icon-facebook</title>
    <desc>Created with Sketch.</desc>
    <g id="Page-1" stroke="none" stroke-width="1" fill="none" fill-rule="evenodd">
        <g id="Home" transform="translate(-432.000000, -2272.000000)">
            <g id="about" transform="translate(0.000000, 800.000000)">
                <g id="contact-info" transform="translate(144.000000, 1216.000000)">
                    <g id="Group-6" transform="translate(288.000000, 256.000000)">
                        <g id="icon-facebook">
                            <path d="M48,24.1466722 C48,10.8108236 37.2548437,0 24,0 C10.7451563,0 0,10.8108236 0,24.1466722 C0,36.1989742 8.77645312,46.188528 20.25,48 L20.25,31.1265696 L14.15625,31.1265696 L14.15625,24.1466722 L20.25,24.1466722 L20.25,18.8268585 C20.25,12.7750987 23.8330312,9.43229382 29.3151563,9.43229382 C31.9409531,9.43229382 34.6875,9.90390851 34.6875,9.90390851 L34.6875,15.8462536 L31.6611562,15.8462536 C28.6797656,15.8462536 27.75,17.7075753 27.75,19.6171432 L27.75,24.1466722 L34.40625,24.1466722 L33.3421875,31.1265696 L27.75,31.1265696 L27.75,48 C39.2235469,46.188528 48,36.1989742 48,24.1466722" id="Fill-1" fill="#1877F2"></path>
                            <path d="M33.6239726,30.7718447 L34.7123288,23.7669903 L27.9041096,23.7669903 L27.9041096,19.2212658 C27.9041096,17.3048701 28.8551027,15.4368932 31.9045616,15.4368932 L35,15.4368932 L35,9.47330097 C35,9.47330097 32.1907466,9 29.505,9 C23.8977123,9 20.2328767,12.3547573 20.2328767,18.4281553 L20.2328767,23.7669903 L14,23.7669903 L14,30.7718447 L20.2328767,30.7718447 L20.2328767,47.7056068 C21.4826644,47.8991869 22.7636164,48 24.0684932,48 C25.3733699,48 26.6543219,47.8991869 27.9041096,47.7056068 L27.9041096,30.7718447 L33.6239726,30.7718447" id="Fill-4" fill="#FFFFFE"></path>
                        </g>
                    </g>
                </g>
            </g>
        </g>
    </g>
</svg>