<?xml version="1.0" encoding="UTF-8"?>
<svg width="48px" height="48px" viewBox="0 0 48 48" version="1.1" xmlns="http://www.w3.org/2000/svg" xmlns:xlink="http://www.w3.org/1999/xlink">
    <!-- Generator: Sketch 55.1 (78136) - https://sketchapp.com -->
    <title>icon-email</title>
    <desc>Created with Sketch.</desc>
    <g id="Page-1" stroke="none" stroke-width="1" fill="none" fill-rule="evenodd">
        <g id="Home" transform="translate(-720.000000, -2272.000000)">
            <g id="about" transform="translate(0.000000, 800.000000)">
                <g id="contact-info" transform="translate(144.000000, 1216.000000)">
                    <g id="Group-9" transform="translate(576.000000, 256.000000)">
                        <g id="icon-email">
                            <circle id="Oval-Copy-8" fill="#F6374E" cx="24" cy="24" r="24"></circle>
                            <path d="M31.2707888,17 L16.7292112,17 C15.947402,17 15.2970887,17.2569417 14.7782516,17.7708343 C14.2594146,18.2847238 14,18.9166629 14,19.6666667 L14,30.3333333 C14,31.0972261 14.2594146,31.7326363 14.7782516,32.2395834 C15.2970887,32.7465303 15.947402,33 16.7292112,33 L31.2707888,33 C32.0526002,33 32.7029135,32.7465303 33.2217506,32.2395834 C33.7405877,31.7326363 34,31.0972261 34,30.3333333 L34,19.6666667 C34,18.9166629 33.7405877,18.2847238 33.2217506,17.7708343 C32.7029135,17.2569417 32.0526002,17 31.2707888,17 Z M16.7292112,18.7916678 L31.2707888,18.7916678 C31.4555797,18.7916678 31.6154928,18.8333318 31.7505342,18.9166659 C31.8855724,19 32.0028443,19.1319436 32.1023467,19.3124998 L24.0000016,24.8333318 L15.8976546,19.3124998 C15.9971576,19.1319436 16.1144273,19 16.2494671,18.9166659 C16.3845069,18.8333318 16.5444199,18.7916678 16.7292112,18.7916678 Z M31.2707888,31.2291666 L16.7292112,31.2291666 C16.444917,31.2291666 16.2210387,31.1493062 16.0575695,30.9895832 C15.8941004,30.8298603 15.8123669,30.6111125 15.8123669,30.3333333 L15.8123669,21.3541669 L23.4456286,26.6041661 C23.5451341,26.6458331 23.6410806,26.6875002 23.7334746,26.7291672 C23.8258716,26.7708343 23.9147129,26.7916678 24.0000016,26.7916678 C24.0852902,26.7916678 24.1741284,26.7708343 24.2665254,26.7291672 C24.3589194,26.6875002 24.4548691,26.6458331 24.5543714,26.6041661 L32.1876353,21.3541669 L32.1876353,30.3333333 C32.1876353,30.6111125 32.1059024,30.8298603 31.9424305,30.9895832 C31.7789616,31.1493062 31.5550852,31.2291666 31.2707888,31.2291666 Z" id="Fill-1" fill="#FFFFFF"></path>
                        </g>
                    </g>
                </g>
            </g>
        </g>
    </g>
</svg>