<?xml version="1.0" encoding="UTF-8"?>
<svg width="48px" height="48px" viewBox="0 0 48 48" version="1.1" xmlns="http://www.w3.org/2000/svg" xmlns:xlink="http://www.w3.org/1999/xlink">
    <!-- Generator: Sketch 55.1 (78136) - https://sketchapp.com -->
    <title>icon-goodreads</title>
    <desc>Created with Sketch.</desc>
    <g id="Page-1" stroke="none" stroke-width="1" fill="none" fill-rule="evenodd">
        <g id="Home" transform="translate(-144.000000, -2192.000000)" fill-rule="nonzero">
            <g id="about" transform="translate(0.000000, 800.000000)">
                <g id="contact-info" transform="translate(144.000000, 1216.000000)">
                    <g id="Group-4" transform="translate(0.000000, 176.000000)">
                        <g id="icon-goodreads">
                            <path d="M47.9700069,25.2466177 C47.332168,37.6925617 36.8432616,47.9898574 24.025737,48 C11.198088,48.0101277 0.668683889,37.7026968 0.0308449874,25.2466177 C-0.657616049,11.8581063 10.2666407,0 23.9953637,0 C37.7342112,0 48.6483435,11.8682414 47.9700069,25.2466177 Z" id="Path" fill="#EAE6CE"></path>
                            <path d="M30.9947501,14.5490628 C30.9947501,14.2108562 30.9625947,13.8726496 30.946517,13.5423083 C30.2069424,13.5423083 29.5879506,13.5423083 28.8885702,13.5423083 C28.8885702,14.3131047 28.8885702,15.0288443 28.8885702,15.7524491 C25.584601,11.2456495 18.7917689,12.6692633 16.8785215,17.1603324 C15.6566156,20.0390212 15.7209264,22.9334405 16.9991043,25.7649377 C18.3496319,28.7537403 22.2243598,30.0200487 25.2630468,29.1784648 C25.4238239,29.154869 25.6087176,29.1076774 25.8096889,29.0447553 C26.0990877,28.9582373 26.3482922,28.8481235 26.5090693,28.7616055 C26.9270897,28.5964349 27.4254987,28.3211504 27.9158688,27.9514827 C28.3097727,27.6526025 28.6474046,27.3379917 28.9126868,27.0469767 C28.8403371,28.1717103 28.8081817,29.3043092 28.623288,30.4133122 C28.3982001,31.7818692 27.7550917,32.9616597 26.4206419,33.6538034 C23.5105765,35.1639353 20.0217136,34.0156058 18.7033415,31.105456 C18.0441554,31.105456 17.3688916,31.105456 16.6614724,31.105456 C16.8061718,33.0245818 17.843184,34.2751598 19.4509549,35.0852826 C21.3883189,36.060576 23.4623434,36.1628245 25.5765621,35.8246179 C28.2695784,35.3920281 30.0220487,33.9054921 30.6410405,31.2784919 C30.8580896,30.3425248 30.9786724,29.3750966 30.9867113,28.4155337 C31.0108278,23.790755 30.9947501,19.1659763 30.9947501,14.5490628 Z M28.5750549,24.2076143 C28.1891899,25.2930215 27.5460815,26.1503359 26.7020018,26.7402312 C26.4929916,26.8896713 25.4640182,27.5896803 23.9607524,27.6604678 C23.872325,27.668333 23.6231205,27.6761983 23.317644,27.6604678 C23.3096051,27.668333 23.2935274,27.668333 23.2854886,27.668333 C21.0908813,27.5346234 19.4107607,26.2840455 18.671186,24.2154795 C18.0521942,22.4772549 18.0361165,20.7075692 18.4862924,18.9378834 C19.1374396,16.3816707 21.0265704,14.816482 23.4382268,14.7535598 C23.4944988,14.7456946 23.5266542,14.7456946 23.5266542,14.7456946 C24.7807155,14.6355808 25.7614558,15.1468233 26.0669323,15.311994 C27.3611879,15.9884072 28.3338893,17.2468504 28.7599486,18.9300182 C29.2101244,20.6997039 29.1940467,22.4693896 28.5750549,24.2076143 Z" id="Shape" fill="#73410E"></path>
                        </g>
                    </g>
                </g>
            </g>
        </g>
    </g>
</svg>