<?xml version="1.0" encoding="UTF-8"?>
<svg width="48px" height="48px" viewBox="0 0 48 48" version="1.1" xmlns="http://www.w3.org/2000/svg" xmlns:xlink="http://www.w3.org/1999/xlink">
    <!-- Generator: Sketch 55.1 (78136) - https://sketchapp.com -->
    <title>icon-about</title>
    <desc>Created with Sketch.</desc>
    <g id="Page-1" stroke="none" stroke-width="1" fill="none" fill-rule="evenodd">
        <g id="Home" transform="translate(-720.000000, -2112.000000)">
            <g id="about" transform="translate(0.000000, 800.000000)">
                <g id="contact-info" transform="translate(144.000000, 1216.000000)">
                    <g id="Group-11" transform="translate(576.000000, 96.000000)">
                        <g id="icon-about">
                            <circle id="Oval-Copy-6" fill="#DCDEE0" cx="24" cy="24" r="24"></circle>
                            <path d="M28.7304676,26.6049231 L20.2695324,26.6049231 C19.5438337,26.6049231 18.8593777,26.7362232 18.2161459,26.998827 C17.5729134,27.2778459 17.012155,27.651229 16.5338541,28.1189905 C16.0555531,28.5867556 15.6844632,29.1406771 15.4205728,29.7807731 C15.1401896,30.4208727 15,31.1101964 15,31.8487692 L15,33.9413835 C15,34.2696383 15.0948341,34.5281351 15.2845052,34.7168816 C15.4741763,34.9056281 15.7339392,35 16.063802,35 C16.3771718,35 16.6286883,34.9056281 16.8183594,34.7168816 C17.0080304,34.5281351 17.1028646,34.2696383 17.1028646,33.9413835 L17.1028646,31.8487692 C17.1028646,30.9624811 17.4079829,30.2157114 18.0182293,29.6084422 C18.6284752,29.0011694 19.3789029,28.6975384 20.2695324,28.6975384 L28.7304676,28.6975384 C29.6210971,28.6975384 30.3715248,29.0011694 30.9817722,29.6084422 C31.592016,30.2157114 31.8971343,30.9624811 31.8971343,31.8487692 L31.8971343,33.9413835 C31.8971343,34.2696383 31.9919678,34.5281351 32.1816421,34.7168816 C32.3713128,34.9056281 32.6228293,35 32.936199,35 C33.2660608,35 33.5258251,34.9056281 33.7154958,34.7168816 C33.9051665,34.5281351 34,34.2696383 34,33.9413835 L34,31.8487692 C34,31.1101964 33.859809,30.4208727 33.5794269,29.7807731 C33.3155368,29.1406771 32.9444469,28.5867556 32.4661463,28.1189905 C31.9878457,27.651229 31.4270851,27.2778459 30.7838537,26.998827 C30.1406223,26.7362232 29.4561663,26.6049231 28.7304676,26.6049231 Z M24.5,24.4876922 C25.2421907,24.4876922 25.9348909,24.3563921 26.5781259,24.0937883 C27.2213573,23.8147694 27.7779922,23.4413863 28.2480486,22.9736248 C28.7181013,22.5058597 29.0933133,21.9519382 29.373699,21.3118422 C29.6375891,20.6717426 29.7695324,19.982419 29.7695324,19.2438461 C29.7695324,18.5052732 29.6375891,17.8159496 29.373699,17.17585 C29.0933133,16.535754 28.7181013,15.9818324 28.2480486,15.5140674 C27.7779922,15.0463059 27.2213573,14.6729228 26.5781259,14.3939038 C25.9348909,14.1313001 25.2421907,14 24.5,14 C23.7578093,14 23.0651091,14.1313001 22.4218741,14.3939038 C21.7786427,14.6729228 21.2220078,15.0463059 20.7519514,15.5140674 C20.2818987,15.9818324 19.9066867,16.535754 19.626301,17.17585 C19.3624109,17.8159496 19.2304676,18.5052732 19.2304676,19.2438461 C19.2304676,19.982419 19.3624109,20.6717426 19.626301,21.3118422 C19.9066867,21.9519382 20.2818987,22.5058597 20.7519514,22.9736248 C21.2220078,23.4413863 21.7786427,23.8147694 22.4218741,24.0937883 C23.0651091,24.3563921 23.7578093,24.4876922 24.5,24.4876922 Z M24.5,16.0926153 C25.3906295,16.0926153 26.1410571,16.3962463 26.751301,17.0035191 C27.3615484,17.6107883 27.6666667,18.3575579 27.6666667,19.2438461 C27.6666667,20.1301343 27.3615484,20.8769039 26.751301,21.4841731 C26.1410571,22.0914459 25.3906295,22.3950769 24.5,22.3950769 C23.6093705,22.3950769 22.8589429,22.0914459 22.248699,21.4841731 C21.6384516,20.8769039 21.3333333,20.1301343 21.3333333,19.2438461 C21.3333333,18.3575579 21.6384516,17.6107883 22.248699,17.0035191 C22.8589429,16.3962463 23.6093705,16.0926153 24.5,16.0926153 Z" id="Fill-1" fill="#000000"></path>
                        </g>
                    </g>
                </g>
            </g>
        </g>
    </g>
</svg>