<?xml version="1.0" encoding="UTF-8"?>
<svg width="48px" height="48px" viewBox="0 0 48 48" version="1.1" xmlns="http://www.w3.org/2000/svg" xmlns:xlink="http://www.w3.org/1999/xlink">
    <!-- Generator: Sketch 55.1 (78136) - https://sketchapp.com -->
    <title>icon-phone</title>
    <desc>Created with Sketch.</desc>
    <g id="Page-1" stroke="none" stroke-width="1" fill="none" fill-rule="evenodd">
        <g id="Home" transform="translate(-720.000000, -2192.000000)">
            <g id="about" transform="translate(0.000000, 800.000000)">
                <g id="contact-info" transform="translate(144.000000, 1216.000000)">
                    <g id="Group-10" transform="translate(576.000000, 176.000000)">
                        <g id="icon-phone">
                            <circle id="Oval-Copy-10" fill="#B28DD6" cx="24" cy="24" r="24"></circle>
                            <path d="M31.7419703,25.1884373 C31.3622391,25.1477517 30.9791244,25.0833338 30.5926112,24.9951837 C30.2061011,24.9070306 29.8365472,24.8019271 29.4839407,24.6798733 C29.0092744,24.5035671 28.5278381,24.4730559 28.039614,24.5883307 C27.5513898,24.7036056 27.1106362,24.9375448 26.7173441,25.2901513 L26.1070661,25.9004292 C25.3204819,25.3715195 24.5881531,24.7781978 23.9100648,24.1204494 C23.2319736,23.4627039 22.6352624,22.7202037 22.1199136,21.8929339 L22.7301915,21.2826559 C23.0692371,20.9436103 23.2963944,20.5164205 23.4116693,20.0010716 C23.5269441,19.4857227 23.5032119,18.9907256 23.3404695,18.5160593 C23.2048518,18.1634528 23.0929694,17.7972914 23.0048163,17.4175602 C22.9166662,17.037829 22.8522483,16.6513247 22.8115627,16.2580297 C22.7301915,15.6070631 22.4386164,15.0679909 21.9368314,14.6407922 C21.4350434,14.2135964 20.858675,14 20.2077085,14 C20.2077085,14 20.2077085,14 20.2077085,14 L17.6038542,14 C17.5631689,14 17.5190936,14 17.4716272,14 C17.4241609,14 17.3800858,14 17.3394003,14 C17.0003552,14.0406856 16.6816574,14.1457891 16.3832977,14.3153104 C16.0849377,14.4848347 15.8272674,14.6984281 15.6102783,14.9561025 C15.3932894,15.213777 15.2373309,15.5087446 15.1423983,15.8410083 C15.0474656,16.173272 15,16.5157011 15,16.8683106 C15.067809,17.5599627 15.1763019,18.251603 15.3254818,18.9432551 C15.4882236,19.6349072 15.6882573,20.3129895 15.9255889,20.977517 C16.1629206,21.6420444 16.437543,22.293002 16.7494645,22.9304076 C17.0613863,23.5678133 17.4004263,24.1780853 17.7665951,24.7612415 C18.1192031,25.3037151 18.4989284,25.825837 18.9057814,26.327622 C19.3126343,26.8429709 19.7466061,27.3311891 20.2077085,27.7922915 C20.6688109,28.2533939 21.1570291,28.6873657 21.672378,29.0942186 C22.174163,29.5010716 22.6962849,29.8807969 23.2387585,30.2334049 C23.8219147,30.6266973 24.4321867,30.979299 25.0695924,31.2912205 C25.706998,31.6031423 26.3613451,31.8743743 27.0326544,32.1049253 C27.7039638,32.3354759 28.3786537,32.5253382 29.0567449,32.6745182 C29.748397,32.8372599 30.4468192,32.9457528 31.1520322,33 C31.1927178,33 31.2334034,33 31.274089,33 C31.3147746,33 31.3554602,33 31.3961458,33 C31.3961458,33 31.3961458,33 31.3961458,33 C31.7487523,33 32.0877919,32.9355824 32.4132737,32.8067452 C32.7387585,32.677908 33.0099908,32.484655 33.2269797,32.2269808 C33.4439685,31.9693064 33.6270507,31.687903 33.7762292,31.3827625 C33.9254107,31.0776217 34,30.7487529 34,30.3961458 L34,27.7922915 C34,27.141325 33.7864036,26.5683461 33.3592078,26.07334 C32.9320091,25.578334 32.3929369,25.2833694 31.7419703,25.1884373 Z M32.2708771,27.7922915 L32.2708771,30.3961458 C32.2708771,30.5317637 32.2505343,30.6470374 32.2098487,30.74197 C32.1691631,30.8369027 32.1013558,30.9250531 32.0064237,31.006424 C31.9250525,31.1013567 31.83351,31.1691649 31.7317989,31.2098502 C31.630085,31.2505355 31.4910778,31.270878 31.3147746,31.270878 C30.6909298,31.2030689 30.0670969,31.101357 29.4432551,30.9657387 C28.8329712,30.8301208 28.2294811,30.6538199 27.632761,30.4368311 C27.0360409,30.2198419 26.4461117,29.9757319 25.8629555,29.7044966 C25.2933572,29.4197004 24.7373316,29.1010006 24.194861,28.7483941 C23.693073,28.450034 23.2184187,28.1177763 22.7708771,27.7516059 C22.3097747,27.3854386 21.8724135,26.9921494 21.4587786,26.5717356 C21.0451437,26.1513188 20.655247,25.7105681 20.2890797,25.2494657 C19.9229093,24.7883633 19.5770877,24.306927 19.2516059,23.805139 C18.8989994,23.2626684 18.5870815,22.7066428 18.3158462,22.1370445 C18.031047,21.5674491 17.7835484,20.9843019 17.5733403,20.3875818 C17.3631322,19.7908617 17.183441,19.1805897 17.0342613,18.5567449 C16.898643,17.946464 16.7969311,17.3226311 16.729122,16.6852254 C16.729122,16.5631686 16.7494645,16.4546757 16.7901498,16.3597436 C16.8308351,16.2648116 16.8715201,16.1698795 16.9122054,16.0749475 C16.9935763,15.9935763 17.0952885,15.9155975 17.2173447,15.8410083 C17.3394008,15.766416 17.4682363,15.7291229 17.6038542,15.7291229 L20.2077085,15.7291229 C20.2077085,15.7291229 20.2077085,15.7291229 20.2077085,15.7291229 C20.4246973,15.7291229 20.611169,15.8071016 20.7671294,15.9630621 C20.9230899,16.1190225 21.0281934,16.3054972 21.0824398,16.522486 C21.1231254,16.9564637 21.2044966,17.4006039 21.3265534,17.8549273 C21.4486072,18.3092478 21.5977857,18.7330482 21.774089,19.1263403 C21.8147746,19.3026435 21.818164,19.4721619 21.7842604,19.6349042 C21.7503567,19.7976466 21.6859388,19.9468251 21.5910068,20.0824428 L20.4721619,21.1199136 C20.3365442,21.2419703 20.2517835,21.4013203 20.2178799,21.5979663 C20.1839762,21.7946124 20.2077085,21.981084 20.2890797,22.1573873 C20.6145614,22.7405465 20.9807258,23.296572 21.3875788,23.8254818 C21.7808709,24.3543915 22.2114532,24.8527811 22.6793345,25.3206655 C23.1472189,25.7885468 23.6456085,26.225908 24.1745182,26.632764 C24.703428,27.0260561 25.2594535,27.3854386 25.8426127,27.7109203 C26.018916,27.8058524 26.2053876,27.8431485 26.4020337,27.8228057 C26.5986797,27.8024629 26.7580297,27.7109233 26.8800864,27.5481809 L28.0192712,26.4089932 C28.1548888,26.2869364 28.3040674,26.2055682 28.4668097,26.1648826 C28.6295491,26.124197 28.7990705,26.1513218 28.9753737,26.2462538 C29.4093514,26.4089962 29.8433232,26.5412214 30.2773008,26.6429354 C30.7112785,26.7446464 31.1452503,26.8429679 31.579228,26.937903 C31.7555312,26.9785886 31.9148811,27.0769101 32.0572807,27.2328706 C32.1996773,27.388831 32.2708771,27.5753027 32.2708771,27.7922915 C32.2708771,27.7922915 32.2708771,27.7922915 32.2708771,27.7922915 Z" id="Fill-1" fill="#FFFFFF"></path>
                        </g>
                    </g>
                </g>
            </g>
        </g>
    </g>
</svg>