<?xml version="1.0" encoding="UTF-8"?>
<svg width="48px" height="48px" viewBox="0 0 48 48" version="1.1" xmlns="http://www.w3.org/2000/svg" xmlns:xlink="http://www.w3.org/1999/xlink">
    <!-- Generator: Sketch 55.1 (78136) - https://sketchapp.com -->
    <title>icon-blog</title>
    <desc>Created with Sketch.</desc>
    <g id="Page-1" stroke="none" stroke-width="1" fill="none" fill-rule="evenodd">
        <g id="Home" transform="translate(-144.000000, -2112.000000)">
            <g id="about" transform="translate(0.000000, 800.000000)">
                <g id="contact-info" transform="translate(144.000000, 1216.000000)">
                    <g id="Group" transform="translate(0.000000, 96.000000)">
                        <g id="icon-blog">
                            <circle id="Oval-Copy-12" fill="#FFFFFF" cx="24" cy="24" r="24"></circle>
                            <path d="M31.8524592,15 C32.7377096,15 33.4836012,15.299529 34.0901629,15.8985942 C34.6967246,16.4976593 35,17.248531 35,18.1512308 L35,28.638923 C35,29.5416227 34.6967246,30.2924944 34.0901629,30.8915596 C33.4836012,31.4906248 32.7377096,31.7901538 31.8524592,31.7901538 L19.6803291,31.7901538 L15.7950817,35.6799531 C15.6803271,35.7948423 15.5696725,35.8769048 15.4631147,35.926143 C15.3565566,35.9753813 15.2213124,36 15.0573769,36 C15.0081965,36 14.9385251,35.9958969 14.8483604,35.9876905 C14.7581962,35.9794841 14.6885247,35.9507623 14.6393443,35.901524 C14.4262285,35.8522858 14.266394,35.7332952 14.159836,35.5445488 C14.0532782,35.355802 14,35.1547491 14,34.9413835 L14,18.1512308 C14,17.248531 14.3032756,16.4976593 14.9098361,15.8985942 C15.5163963,15.299529 16.2622904,15 17.1475408,15 L31.8524592,15 Z M32.8852447,28.638923 L32.8852447,18.1512308 C32.8852447,17.822977 32.7909839,17.5644788 32.6024588,17.3757327 C32.4139337,17.1869866 32.1639363,17.0926153 31.8524592,17.0926153 L17.1475408,17.0926153 C16.8360637,17.0926153 16.5860663,17.1869866 16.3975408,17.3757327 C16.2090153,17.5644788 16.1147539,17.822977 16.1147539,18.1512308 L16.1147539,32.4302465 L18.5245881,30.0175846 C18.6229496,29.9026962 18.7295056,29.8206345 18.8442631,29.7713961 C18.959017,29.7221577 19.0983578,29.6975384 19.2622961,29.6975384 L31.8524592,29.6975384 C32.1639363,29.6975384 32.4139337,29.6031672 32.6024588,29.4144211 C32.7909839,29.2256749 32.8852447,28.9671768 32.8852447,28.638923 Z M20.6721537,24.8830698 C19.9166494,24.8830698 19.3041922,24.2698946 19.3041922,23.5135046 C19.3041922,22.7571146 19.9166494,22.1439394 20.6721537,22.1439394 C21.427658,22.1439394 22.0401152,22.7571146 22.0401152,23.5135046 C22.0401152,24.2698946 21.427658,24.8830698 20.6721537,24.8830698 Z M24.5,24.8830698 C23.7444957,24.8830698 23.1320385,24.2698946 23.1320385,23.5135046 C23.1320385,22.7571146 23.7444957,22.1439394 24.5,22.1439394 C25.2555043,22.1439394 25.8679615,22.7571146 25.8679615,23.5135046 C25.8679615,24.2698946 25.2555043,24.8830698 24.5,24.8830698 Z M28.3278463,24.8830698 C27.572342,24.8830698 26.9598848,24.2698946 26.9598848,23.5135046 C26.9598848,22.7571146 27.572342,22.1439394 28.3278463,22.1439394 C29.0833506,22.1439394 29.6958078,22.7571146 29.6958078,23.5135046 C29.6958078,24.2698946 29.0833506,24.8830698 28.3278463,24.8830698 Z" id="Combined-Shape" fill="#000000"></path>
                        </g>
                    </g>
                </g>
            </g>
        </g>
    </g>
</svg>