<?xml version="1.0" encoding="UTF-8"?>
<svg width="48px" height="48px" viewBox="0 0 48 48" version="1.1" xmlns="http://www.w3.org/2000/svg" xmlns:xlink="http://www.w3.org/1999/xlink">
    <!-- Generator: Sketch 55.1 (78136) - https://sketchapp.com -->
    <title>icon-linkedin</title>
    <desc>Created with Sketch.</desc>
    <g id="Page-1" stroke="none" stroke-width="1" fill="none" fill-rule="evenodd">
        <g id="Home" transform="translate(-144.000000, -2272.000000)">
            <g id="about" transform="translate(0.000000, 800.000000)">
                <g id="contact-info" transform="translate(144.000000, 1216.000000)">
                    <g id="Group-5" transform="translate(0.000000, 256.000000)">
                        <g id="icon-linkedin">
                            <circle id="Oval-Copy-5" fill="#0A66C2" cx="24" cy="24" r="24"></circle>
                            <g id="Group-2" transform="translate(9.000000, 9.000000)">
                                <path d="M30,2.21458333 L30,27.7854167 C30,29.0085417 29.0083609,30 27.7854782,30 L2.21452182,30 C0.991430794,30 0,29.0085417 0,27.7854167 L0,2.21458333 C0,0.991458333 0.991430794,0 2.21452182,0 L27.7854782,0 C29.0083609,0 30,0.991458333 30,2.21458333 Z" id="Path" fill="#0A66C2"></path>
                                <path d="M25.3125,16.2891222 C25.3125,11.8324836 22.5645366,10.3125 20.0218022,10.3125 C17.6706149,10.3125 16.1315028,11.8458484 15.6905236,12.7440495 L15.632428,12.7440495 L15.632428,10.7225668 L11.25,10.7225668 L11.25,25.3125 L15.8069253,25.3125 L15.8069253,17.4024332 C15.8069253,15.2931245 17.1325992,14.2674273 18.4845846,14.2674273 C19.7637399,14.2674273 20.7555747,14.9925221 20.7555747,17.3436704 L20.7555747,25.3125 L25.3125,25.3125 L25.3125,16.2891222 Z" id="Path" fill="#FFFFFF"></path>
                                <path d="M9.375,6.56317886 C9.375,4.9384504 8.11583644,3.75 6.56261267,3.75 C5.00916356,3.75 3.75,4.9384504 3.75,6.56317886 C3.75,8.18790731 5.00916356,9.375 6.56261267,9.375 C8.11583644,9.375 9.375,8.18790731 9.375,6.56317886 Z" id="Path" fill="#FFFFFF"></path>
                                <polygon id="Path" fill="#FFFFFF" points="4.6875 25.3125 9.375 25.3125 9.375 10.3125 4.6875 10.3125"></polygon>
                            </g>
                        </g>
                    </g>
                </g>
            </g>
        </g>
    </g>
</svg>