<?xml version="1.0" encoding="UTF-8"?>
<svg width="238px" height="48px" viewBox="0 0 238 48" version="1.1" xmlns="http://www.w3.org/2000/svg" xmlns:xlink="http://www.w3.org/1999/xlink">
    <!-- Generator: Sketch 55.1 (78136) - https://sketchapp.com -->
    <title>logo</title>
    <desc>Created with Sketch.</desc>
    <defs>
        <polygon id="path-1" points="0.45577 0.673696154 13.4603 0.673696154 13.4603 18.5746192 0.45577 18.5746192"></polygon>
    </defs>
    <g id="Page-1" stroke="none" stroke-width="1" fill="none" fill-rule="evenodd">
        <g id="Home" transform="translate(-144.000000, -160.000000)">
            <g id="hero" transform="translate(144.000000, 0.000000)">
                <g id="logo" transform="translate(0.000000, 160.000000)">
                    <path d="M84.3990686,24.7653117 C84.7996895,25.3654708 85,26.0105078 85,26.699753 C85,27.2912044 84.8581408,27.8565328 84.5757359,28.393059 C84.2933309,28.9295851 83.8848289,29.3984594 83.3508866,29.7983422 C82.2514777,30.5994474 80.9721177,31 79.51215,31 C78.789062,31 78.0981551,30.8948382 77.4387725,30.6871939 C76.7793898,30.4788797 76.1909368,30.1828191 75.6727566,29.7983422 C74.7775987,29.1258425 74.2351185,28.3006238 74.0472864,27.3233558 L75.0600036,26.7473103 C75.10729,27.6281241 75.5308974,28.3495207 76.3321392,28.9094905 C76.7399845,29.2296647 77.2187593,29.4741491 77.7684638,29.642274 C78.3181682,29.810399 78.899397,29.8941265 79.51215,29.8941265 C80.7678667,29.8941265 81.8278703,29.5665843 82.691504,28.9094905 C83.5236134,28.2852179 83.9399964,27.5484155 83.9399964,26.699753 C83.9399964,26.2027463 83.7863156,25.7385607 83.4809242,25.3058567 C83.1742194,24.8731528 82.7460147,24.5054214 82.196967,24.2006531 C81.67813,23.928706 80.7521046,23.7130238 79.4175772,23.5522669 C79.3072422,23.5368611 78.9112186,23.4725583 78.2281927,23.3600285 C77.5445101,23.2481685 76.9599976,23.0720057 76.4733417,22.8315402 C75.7042809,22.4477331 75.0994089,21.9393394 74.6600394,21.3063591 C74.2200131,20.6740486 74,19.9894922 74,19.2526897 C74,18.6598987 74.145143,18.1032779 74.4360857,17.5828275 C74.725715,17.062377 75.1381575,16.6022104 75.6727566,16.200988 C76.1909368,15.8171809 76.7793898,15.5211203 77.4387725,15.3128061 C78.0981551,15.1051618 78.789062,15 79.51215,15 C80.9721177,15 82.2514777,15.4012224 83.3508866,16.200988 C84.2618067,16.9063089 84.795749,17.7234898 84.9527136,18.6518608 L83.9399964,19.2285762 C83.9235775,18.8280236 83.8106156,18.4435467 83.5984835,18.0751455 C83.3863514,17.7067443 83.0835871,17.3704944 82.691504,17.0663959 C82.2678966,16.7462218 81.7812407,16.5017373 81.2315362,16.3336124 C80.681175,16.1654875 80.1084841,16.0810901 79.51215,16.0810901 C78.9145024,16.0810901 78.3378709,16.1654875 77.7809421,16.3336124 C77.2226999,16.5017373 76.7399845,16.7462218 76.3321392,17.0663959 C75.9236372,17.3704944 75.609708,17.711433 75.3896949,18.0872022 C75.1696818,18.4636413 75.0600036,18.8521371 75.0600036,19.2526897 C75.0600036,19.7490267 75.2406114,20.2413447 75.6011702,20.7296437 C75.9623858,21.2186126 76.4102932,21.5984008 76.9442355,21.8710177 C77.2739268,22.0311048 77.6390829,22.1469837 78.0390471,22.2193243 C78.4403248,22.2909951 78.9539077,22.3673546 79.5824228,22.4477331 C79.692101,22.4631389 79.9672816,22.503998 80.4066511,22.5676309 C80.8460207,22.6312639 81.269628,22.7196802 81.67813,22.8315402 C82.086632,22.94407 82.4327423,23.0800435 82.7151472,23.2401306 C83.4369216,23.6567589 83.9991044,24.1651526 84.3990686,24.7653117" id="Fill-111" fill="#282828"></path>
                    <path d="M96,16.1079197 C94.7517586,16.1079197 93.6004746,16.4176535 92.546826,17.0357773 C91.4931774,17.6545729 90.6537842,18.4897119 90.0300025,19.5418661 C89.4055428,20.5940203 89.093652,21.7469556 89.093652,22.9993281 C89.093652,24.2523726 89.4055428,25.4053078 90.0300025,26.457462 C90.6537842,27.5096162 91.4931774,28.3447552 92.546826,28.962879 C93.6004746,29.5816746 94.7517586,29.8907365 96,29.8907365 C97.2482414,29.8907365 98.3988474,29.5816746 99.453174,28.962879 C100.506145,28.3447552 101.34147,27.5096162 101.957793,26.457462 C102.573438,25.4053078 102.881261,24.2523726 102.881261,22.9993281 C102.881261,21.7469556 102.573438,20.5940203 101.957793,19.5418661 C101.34147,18.4897119 100.506145,17.6545729 99.453174,17.0357773 C98.3988474,16.4176535 97.2482414,16.1079197 96,16.1079197 M96,31 C94.5571659,31 93.2194254,30.6418913 91.9874566,29.9276896 C90.7554878,29.2121441 89.783202,28.2406148 89.0699212,27.0117578 C88.3566404,25.7829008 88,24.4452003 88,22.9993281 C88,21.553456 88.3566404,20.2164273 89.0699212,18.9875703 C89.783202,17.7587134 90.7554878,16.7865121 91.9874566,16.0716385 C93.2194254,15.3574368 94.5571659,15 96,15 C97.4428341,15 98.7805746,15.3574368 100.012543,16.0716385 C101.243834,16.7865121 102.216798,17.7587134 102.930079,18.9875703 C103.64336,20.2164273 104,21.553456 104,22.9993281 C104,24.4452003 103.64336,25.7829008 102.930079,27.0117578 C102.216798,28.2406148 101.243834,29.2121441 100.012543,29.9276896 C98.7805746,30.6418913 97.4428341,31 96,31" id="Fill-113" fill="#282828"></path>
                    <path d="M113.987156,31 C113.195584,31 112.431726,30.8417859 111.69626,30.5246785 C110.960793,30.2082502 110.3105,29.7580529 109.745381,29.1734075 C109.178909,28.6213555 108.746958,27.9722022 108.448175,27.2245894 C108.148716,26.4790137 108,25.6913381 108,24.8629207 L108,15 L109.090356,15 L109.090356,24.8629207 C109.090356,25.5453465 109.214736,26.1944999 109.466201,26.8110597 C109.71699,27.4282986 110.067823,27.9640538 110.52073,28.4183253 C110.989184,28.8895726 111.522533,29.250817 112.120775,29.5020583 C112.718342,29.7539787 113.340919,29.8795994 113.987156,29.8795994 C114.649617,29.8795994 115.280306,29.7539787 115.878549,29.5020583 C116.476791,29.250817 117.009464,28.8895726 117.478594,28.4183253 C117.930825,27.9640538 118.282334,27.4282986 118.533123,26.8110597 C118.783912,26.1944999 118.908968,25.5453465 118.908968,24.8629207 L118.908968,15 L120,15 L120,24.8629207 C120,25.6913381 119.850608,26.4790137 119.551149,27.2245894 C119.252366,27.9722022 118.819739,28.6213555 118.253943,29.1734075 C117.688824,29.7580529 117.042587,30.2082502 116.314556,30.5246785 C115.587201,30.8417859 114.811852,31 113.987156,31" id="Fill-115" fill="#282828"></path>
                    <path d="M135.514036,31 L128.824091,22.9258751 L130.806758,22.9258751 C132.028135,22.9258751 133.02016,22.7700755 133.779376,22.4584763 C134.341016,22.1956074 134.828047,21.7975292 135.241161,21.2642416 C135.653583,20.7316404 135.86083,20.1448181 135.86083,19.5044612 C135.86083,18.9306795 135.687433,18.3843514 135.340639,17.867536 C134.993845,17.3507207 134.497833,16.9286205 133.853985,16.6005491 C133.209445,16.2717914 132.466809,16.1077557 131.624003,16.1077557 L127.114991,16.1077557 L127.114991,31 L126,31 L126,15 L131.624003,15 C132.38391,15 133.094078,15.1194235 133.754506,15.3568977 C134.414934,15.5950583 134.993845,15.9354839 135.489167,16.3788607 C135.967908,16.8050789 136.334736,17.2889499 136.591723,17.8311599 C136.848019,18.3719973 136.97513,18.9306795 136.97513,19.5044612 C136.97513,20.4070007 136.702945,21.2155113 136.157885,21.9293068 C135.613515,22.6431023 134.968976,23.1557996 134.225648,23.4673988 C133.713747,23.6973233 133.21359,23.8407687 132.726559,23.8984214 C132.239528,23.9560741 131.723482,23.9842141 131.178421,23.9842141 L137,31 L135.514036,31 Z" id="Fill-117" fill="#282828"></path>
                    <path d="M147.436204,31 C145.914113,31 144.503551,30.6384067 143.205233,29.9172327 C141.906201,29.1953878 140.880273,28.2206289 140.128164,26.9936268 C139.376055,25.7666247 139,24.4316143 139,22.9879245 C139,21.5442348 139.376055,20.2132495 140.128164,18.9942977 C140.880273,17.7753459 141.906201,16.8046122 143.205233,16.0827673 C144.503551,15.3609224 145.914113,15 147.436204,15 C148.615128,15 149.746866,15.2287631 150.832849,15.6856184 C151.918831,16.1431447 152.871836,16.7885115 153.691864,17.6223899 L152.794624,18.3683857 C152.110433,17.6465409 151.302559,17.0850314 150.371002,16.6845283 C149.44016,16.2833543 148.461417,16.0827673 147.436204,16.0827673 C146.119298,16.0827673 144.906058,16.3920335 143.794338,17.0092243 C142.684047,17.6264151 141.798961,18.4643187 141.141223,19.5236059 C140.48277,20.5822222 140.153901,21.7367715 140.153901,22.9879245 C140.153901,24.2384067 140.48277,25.3942977 141.141223,26.452914 C141.798961,27.5108595 142.684047,28.349434 143.794338,28.9666247 C144.906058,29.5844864 146.119298,29.8930818 147.436204,29.8930818 C148.529336,29.8930818 149.567418,29.6683438 150.55045,29.2195388 C151.533483,28.7707338 152.375673,28.1448218 153.077022,27.3424738 L154,28.0166876 C153.196416,28.9625996 152.221963,29.6971908 151.076641,30.2177778 C149.931319,30.7390356 148.718078,31 147.436204,31" id="Fill-119" fill="#282828"></path>
                    <polygon id="Fill-121" fill="#282828" points="158 31 158 15 168 15 168 16.1317776 159.068945 16.1317776 159.068945 22.433768 166.028346 22.433768 166.028346 23.5655456 159.068945 23.5655456 159.068945 29.8421414 168 29.8421414 168 31"></polygon>
                    <path d="M183.211546,26.1123353 C183.211546,25.7238442 183.078267,25.366541 182.813097,25.0424594 C182.547232,24.7183779 182.232082,24.4831137 181.866952,24.3366668 C181.253312,24.0783508 180.464048,23.9481758 179.501938,23.9481758 L176.813444,23.9481758 L176.813444,28.2758168 L180.248858,28.2758168 C181.177648,28.2758168 181.924568,28.0249587 182.489616,27.5225645 C182.970672,27.1008517 183.211546,26.6316793 183.211546,26.1123353 L183.211546,26.1123353 Z M176.813444,21.2002627 L179.029213,21.2002627 C179.410308,21.2002627 179.705328,21.1846688 179.912883,21.1521251 C180.120437,21.1195813 180.323827,21.0633078 180.522358,20.9819484 C180.871522,20.8029578 181.136692,20.5887114 181.318563,20.3371753 C181.501822,20.0863172 181.592758,19.8144413 181.592758,19.5229035 C181.592758,19.068647 181.410193,18.6801559 181.045757,18.3553964 C180.613987,17.9506335 179.966333,17.747913 179.103488,17.747913 L176.813444,17.747913 L176.813444,21.2002627 Z M186,26.1123353 C186,26.7449044 185.858391,27.3612017 185.57656,27.9605492 C185.294036,28.5598966 184.895586,29.0873766 184.381905,29.5409551 C183.850176,30.0108055 183.227512,30.3714988 182.514606,30.6223569 C181.800312,30.873893 181.045757,31 180.248858,31 L174,31 L174,15 L179.103488,15 C180.647307,15 181.924568,15.4461206 182.937352,16.3376838 C183.401747,16.7593966 183.762712,17.2448409 184.020246,17.7960507 C184.277781,18.3479385 184.406895,18.9228781 184.406895,19.5229035 C184.406895,20.3493792 184.165327,21.1114454 183.684271,21.8084241 C183.634292,21.9053773 183.568346,21.9948727 183.485741,22.076232 C184.098687,22.4328573 184.613756,22.870164 185.028866,23.38883 C185.675826,24.2153057 186,25.1238188 186,26.1123353 L186,26.1123353 Z" id="Fill-123" fill="#282828"></path>
                    <path d="M197,17.674768 C196.038687,17.674768 195.153743,17.9138125 194.345168,18.3912356 C193.535924,18.8686587 192.895495,19.5178742 192.423212,20.3375505 C191.95026,21.1572267 191.714453,22.0448208 191.714453,23.0003329 C191.714453,23.9551792 191.95026,24.8434392 192.423212,25.6631154 C192.895495,26.4827916 193.535924,27.1313413 194.345168,27.6087644 C195.153743,28.0861875 196.038687,28.3258979 197,28.3258979 C197.961313,28.3258979 198.845587,28.0861875 199.654832,27.6087644 C200.463406,27.1313413 201.104505,26.4867868 201.576788,25.6751009 C202.049071,24.8627492 202.285547,23.9718257 202.285547,23.0003329 C202.285547,22.029506 202.049071,21.1372508 201.576788,20.3255649 C201.104505,19.5138791 200.463406,18.8686587 199.654832,18.3912356 C198.845587,17.9138125 197.961313,17.674768 197,17.674768 M197,31 C195.559035,31 194.225255,30.6417662 192.99933,29.9252986 C191.774745,29.2094969 190.801373,28.2380041 190.080556,27.012152 C189.359739,25.7862999 189,24.4492488 189,23.0003329 C189,21.551417 189.359739,20.214366 190.080556,18.987848 C190.801373,17.7619959 191.774745,16.791169 192.99933,16.0747014 C194.225255,15.3582338 195.559035,15 197,15 C198.441635,15 199.775415,15.3582338 201.00067,16.0747014 C202.225925,16.791169 203.198627,17.7619959 203.919444,18.987848 C204.639591,20.214366 205,21.551417 205,23.0003329 C205,24.4492488 204.639591,25.7862999 203.919444,27.012152 C203.198627,28.2380041 202.225925,29.2094969 201.00067,29.9252986 C199.775415,30.6417662 198.441635,31 197,31" id="Fill-125" fill="#282828"></path>
                    <path d="M212.628095,17.747913 L212.628095,22.0518242 L214.907333,22.0518242 C215.822271,22.0518242 216.55046,21.9223272 217.093197,21.6626552 C217.434273,21.5168863 217.728661,21.2823001 217.97701,20.9575406 C218.224711,20.633459 218.34921,20.2768338 218.34921,19.8876647 C218.34921,19.3527268 218.131985,18.8828764 217.697536,18.4774355 C217.185923,17.9913132 216.488859,17.747913 215.605046,17.747913 L212.628095,17.747913 Z M217.767567,31 L212.628095,23.9481758 L212.628095,31 L210.023344,31 L210,15 L215.605046,15 C216.348797,15 217.050401,15.126107 217.709856,15.3769651 C218.368663,15.6285012 218.945768,15.9891945 219.442466,16.4590449 C219.937868,16.9133014 220.31785,17.4360354 220.581761,18.0279249 C220.845025,18.6191364 220.977305,19.2395017 220.977305,19.8876647 C220.977305,20.8768592 220.674487,21.7840163 220.070149,22.61117 C219.542973,23.3081487 218.891948,23.8105428 218.117071,24.1183525 C217.836949,24.2322556 217.515327,24.3298869 217.151556,24.4105682 C216.787137,24.4919276 216.519983,24.5319293 216.348797,24.5319293 L221,31 L217.767567,31 Z" id="Fill-127" fill="#282828"></path>
                    <g id="Group-131" transform="translate(224.000000, 13.000000)">
                        <mask id="mask-2" fill="white">
                            <use xlink:href="#path-1"></use>
                        </mask>
                        <g id="Clip-130"></g>
                        <polygon id="Fill-129" fill="#282828" mask="url(#mask-2)" points="3.26767 7.93315769 3.26767 18.1807346 0.45577 18.1807346 0.45577 0.673696154 10.64847 11.3144269 10.64847 0.935311538 13.46037 0.935311538 13.46037 18.5746192"></polygon>
                    </g>
                    <path d="M7.25917814,42.5870706 C8.98727576,44.4160417 11.2337297,45.715031 14,46.4847497 L14,48 C10.7898415,47.1826185 8.18564873,45.7264131 6.18523154,43.6335181 C4.18481435,41.5399117 3.18533584,39.1702878 3.18533584,36.5239351 L3.18533584,28.0776595 C3.18533584,27.7895486 2.74071756,27.1165782 1.8522111,26.0573258 C0.962974552,24.9994961 0.344597413,24.2774402 0,23.8918695 C0.344597413,23.5077215 0.962974552,22.7856656 1.8522111,21.7264131 C2.74071756,20.6685835 3.18533584,20.0183774 3.18533584,19.7779293 L3.18533584,11.4049263 C3.18533584,8.80623648 4.1972257,6.44870617 6.22246558,4.33091265 C8.24697539,2.2145419 10.8387568,0.770430092 14,0 L14,1.5159617 C11.1855444,2.2863918 8.9259491,3.57328749 7.2219441,5.37736017 C5.51866917,7.18214423 4.66666667,9.19180721 4.66666667,11.4049263 L4.66666667,19.7779293 C4.66666667,20.355574 4.43158114,20.968788 3.96287025,21.6182826 C3.49342929,22.2677772 2.88892365,23.0254024 2.1478932,23.8918695 C2.2464539,23.9886178 2.54286608,24.3371965 3.03712975,24.938317 C3.53066333,25.5408602 3.92636629,26.1185049 4.22204839,26.6712511 C4.51846058,27.2247088 4.66666667,27.6935116 4.66666667,28.0776595 L4.66666667,36.5239351 C4.66666667,38.7377657 5.53035044,40.7588108 7.25917814,42.5870706" id="Fill-132" fill="#FF8000"></path>
                    <path d="M58.3081359,36.5233938 L58.3081359,28.0779548 C58.3081359,27.6938125 58.4571189,27.2250167 58.7550849,26.6708559 C59.0537849,26.1181178 59.4500944,25.5404817 59.9462151,24.9386588 C60.4423359,24.3375472 60.739568,23.9889737 60.8401132,23.8915154 C60.0959321,23.0257725 59.4867897,22.2674472 59.0156217,21.6186736 C58.5437199,20.9684772 58.3081359,20.3552723 58.3081359,19.7776362 L58.3081359,11.4047573 C58.3081359,9.19238236 57.4524009,7.18203779 55.7394632,5.37799185 C54.0265255,3.57323453 51.7800377,2.28635791 49,1.51665061 L49,0 C52.1770811,0.770418674 54.7714406,2.21450908 56.7816104,4.33155984 C58.7925142,6.44932197 59.7972321,8.80610597 59.7972321,11.4047573 L59.7972321,19.7776362 C59.7972321,20.0187921 60.2449151,20.6682771 61.1380793,21.7268025 C62.0312434,22.7853279 62.6521283,23.5073731 63,23.8915154 C62.6521283,24.2777918 62.0312434,24.9991256 61.1380793,26.0569396 C60.2449151,27.1161764 59.7972321,27.7898481 59.7972321,28.0779548 L59.7972321,36.5233938 C59.7972321,39.1220452 58.7925142,41.4802519 56.7816104,43.5965913 C54.7714406,45.7150648 52.1770811,47.1819192 49,48 L49,46.4840608 C51.7800377,45.7150648 54.0265255,44.4160948 55.7394632,42.5864394 C57.4524009,40.7582067 58.3081359,38.7371916 58.3081359,36.5233938" id="Fill-134" fill="#FF8000"></path>
                    <polygon id="Fill-136" fill="#FF8000" points="31 48 18 35.4629635 25.8531337 27.8887865 26.9683497 28.9635731 20.228952 35.4629635 31 45.849713 41.771788 35.4629635 18 12.5377502 31 0 44 12.5377502 36.1468663 20.1112135 35.0316503 19.0371406 41.771788 12.5377502 31 2.15028695 20.228952 12.5377502 44 35.4629635"></polygon>
                </g>
            </g>
        </g>
    </g>
</svg>